<?xml version="1.0" encoding="UTF-8"?><svg id="_圖層_2" xmlns="http://www.w3.org/2000/svg" viewBox="0 0 157.4 157.4"><defs><style>.cls-1{fill:#fff;}.cls-2{fill:#fdda92;}.cls-3{fill:#058789;}</style></defs><g id="Layer_2"><circle class="cls-2" cx="78.7" cy="78.7" r="78.7"/><path class="cls-1" d="m97.6,71.1c-.3,0-.6.1-1,.1h-36.2c-5,0-9.2-3.8-9.7-8.8-.5-5.4,3.4-10.1,8.8-10.6,2.2-.2,4.2.3,6,1.3-.3-.9-.4-1.9-.4-2.9,0-5.8,4.7-10.5,10.5-10.5,5,0,9.2,3.5,10.3,8.2.8-.7,1.8-1.1,3-1.2,3-.3,5.7,1.9,6,5v.2c.3-.1.6-.1.9-.1,5.4-.5,10.1,3.4,10.6,8.8.5,5.3-3.5,10-8.8,10.5Z"/><path class="cls-1" d="m60.1,100.3H25.8c-4.6,0-8.5-3.5-9-8.1-.5-5,3.1-9.3,8.1-9.8,2-.2,3.9.3,5.5,1.2-.2-.8-.4-1.7-.4-2.6,0-5.4,4.4-9.7,9.7-9.7,4.6,0,8.5,3.2,9.5,7.6.7-.6,1.7-1,2.7-1.1,2.8-.3,5.3,1.8,5.6,4.6v.2c.3,0,.5-.1.8-.1,5-.5,9.3,3.1,9.8,8.1.6,4.8-3,9.2-8,9.7Z"/><path class="cls-3" d="m50.9,92.1h-16.4l-2.9,8.2h-8.6l15.1-40.5h9.3l15,40.5h-8.6l-2.9-8.2Zm-2.2-6.3l-6-17.3-6,17.3h12Z"/><path class="cls-3" d="m95.6,82.7c1.5,1.8,2.2,4,2.2,6.5,0,3.4-1.2,6.2-3.5,8.2s-5.6,3-10,3h-17.6v-41h17.2c4.1,0,7.3.9,9.5,2.7s3.3,4.4,3.3,7.7c0,2.6-.7,4.6-2,6.3-1.3,1.6-3.1,2.7-5.3,3.2,2.7.4,4.7,1.5,6.2,3.4Zm-20.6-6.2h7.4c2.1,0,3.6-.5,4.7-1.4,1.1-.9,1.6-2.2,1.6-3.9s-.5-3-1.6-3.9c-1-.9-2.7-1.4-4.8-1.4h-7.3v10.6h0Zm12.7,15.7c1.2-.9,1.7-2.3,1.7-4.1s-.6-3.2-1.8-4.2-2.9-1.5-5-1.5h-7.7v11.3h7.8c2.2-.1,3.9-.5,5-1.5Z"/><path class="cls-3" d="m134.8,62.9c3.4,2.6,5.6,6.2,6.7,10.7h-8.6c-.9-2.2-2.3-3.9-4.1-5.2-1.9-1.3-4.1-1.9-6.8-1.9-2.2,0-4.1.5-5.9,1.6-1.7,1.1-3.1,2.6-4.1,4.6s-1.5,4.4-1.5,7.1.5,5,1.5,7,2.3,3.6,4.1,4.6c1.7,1.1,3.7,1.6,5.9,1.6,2.6,0,4.9-.6,6.8-1.9,1.9-1.3,3.3-3,4.1-5.2h8.6c-1.1,4.5-3.3,8.1-6.7,10.7-3.4,2.6-7.6,3.9-12.7,3.9-3.9,0-7.4-.9-10.4-2.6-3-1.8-5.3-4.2-7-7.4-1.6-3.2-2.5-6.8-2.5-10.8s.8-7.7,2.5-10.9c1.6-3.2,4-5.6,6.9-7.4,3-1.8,6.4-2.6,10.4-2.6,5.2.1,9.4,1.4,12.8,4.1Z"/><path class="cls-1" d="m128.8,114.6h-30.6c-4.1,0-7.6-3.1-8-7.3-.4-4.4,2.8-8.3,7.2-8.8,1.8-.2,3.5.2,4.9,1.1-.2-.7-.3-1.5-.3-2.4,0-4.8,3.9-8.7,8.7-8.7,4.1,0,7.6,2.9,8.5,6.8.7-.5,1.5-.9,2.4-1,2.5-.2,4.7,1.6,5,4.1v.2c.2,0,.5-.1.7-.1,4.4-.4,8.3,2.8,8.8,7.2.3,4.6-2.9,8.5-7.3,8.9Z"/></g></svg>