<?xml version="1.0" encoding="UTF-8"?><svg id="_圖層_2" xmlns="http://www.w3.org/2000/svg" viewBox="0 0 143.83 143.83"><defs><style>.cls-1{opacity:.1;}.cls-2{fill:#f77c5b;}.cls-3{fill:#ffae3c;}.cls-4{fill:#ffd039;}.cls-5{fill:#fdda92;}.cls-6{fill:#243239;}.cls-7{fill:#543c66;}.cls-8{fill:#503d2e;}</style></defs><g id="Layer_2"><circle class="cls-4" cx="71.91" cy="71.91" r="71.9"/><path class="cls-3" d="m114.21,55.52l-1.5,7.7c-1.3,6.6-5.8,11.7-11.6,13.9-3.2,1.3-6.8,1.6-10.4.9l-5.2-1-2.6-.4.6-3.2.1-.7.3-1.6.4-2.1c1.5-7.5,7.2-13.1,14.1-14.7,2.5-.6,5.2-.7,7.9-.2l7.9,1.4Z"/><g class="cls-1"><path class="cls-6" d="m114.21,55.52l-1.5,7.7c-1.3,6.6-5.8,11.7-11.6,13.9-3.2,1.3-6.8,1.6-10.4.9l-5.2-1-2.6-.4,2.4-1.6,4.4-2.9,24.5-16.6Z"/></g><path class="cls-3" d="m53.21,78.12l7.7-1.6-1.5-7.7c-2-10.2-11.9-16.9-22.1-14.9l-7.7,1.6,1.5,7.7c2,10.2,11.9,16.8,22.1,14.9Z"/><g class="cls-1"><path class="cls-6" d="m53.21,78.12l7.7-1.6-31.3-21,1.5,7.7c2,10.2,11.9,16.8,22.1,14.9Z"/></g><path class="cls-2" d="m87.51,72.02c-.8.4-1.6.7-2.5.9l-.2.1-1.3.4-4.6,1.3-1.5.4-1.3-4.3-1-3.3c-.4-1.2-.6-2.5-.7-3.7-.7-8,3.8-15.6,11.3-18.8.7-.3,1.4-.6,2.2-.8l7.6-2.2,2.2,7.6c.4,1.5.7,3,.7,4.6.4,7.5-3.9,14.6-10.9,17.8Z"/><g class="cls-1"><path class="cls-6" d="m87.51,72.02c-.8.4-1.6.7-2.5.9l-.2.1-1.3.4-4.6,1.3-1.5.4,4.1-7.5,14-25.6,2.2,7.6c.4,1.5.7,3,.7,4.6.4,7.5-3.9,14.6-10.9,17.8Z"/></g><path class="cls-2" d="m58.81,72.92l7.6,2.2,2.2-7.6c2.9-10-2.8-20.4-12.8-23.3l-7.6-2.2-2.2,7.5c-2.9,10,2.8,20.5,12.8,23.4Z"/><g class="cls-1"><path class="cls-6" d="m58.81,72.92l7.6,2.2-18.2-33.1-2.2,7.5c-2.9,10,2.8,20.5,12.8,23.4Z"/></g><path class="cls-5" d="m80.41,66.52c-.4.4-.8.9-1.2,1.3l-7.3,7.3-7.3-7.3c-.4-.4-.8-.8-1.2-1.3-5.3-6.1-7.1-14.1-5.4-21.5,1-4.4,3.2-8.6,6.6-12l7.3-7.3,7.3,7.3c3.4,3.4,5.6,7.6,6.6,12,1.7,7.4-.1,15.5-5.4,21.5Z"/><g class="cls-1"><path class="cls-6" d="m80.41,66.52c-.4.4-.8.9-1.2,1.3l-7.3,7.3V25.72l7.3,7.3c3.4,3.4,5.6,7.6,6.6,12,1.7,7.4-.1,15.5-5.4,21.5Z"/></g><circle class="cls-2" cx="71.9" cy="77.13" r="13.6"/><path class="cls-7" d="m71.91,82.82h0c-1.5-3.4-3.9-6.2-7-8.1h0c-1.5-.9-3.1-1.6-4.8-2.1-.3-.1-.6-.2-.9-.2-.9-.2-1.9-.3-2.9-.4h-2.1c-4.4.3-8.4,2.2-11.4,5.1-3.3,3.3-5.3,7.8-5.3,12.8v.1c0,9.9,8.1,17.9,18,17.9,1.4,0,2.7-.2,3.9-.4,5.7-1.3,10.3-5.2,12.6-10.4h0c.4-1,.8-2,1-3.1h0c.2-1.1.4-2.2.4-3.3v-.7c0-2.6-.6-5-1.5-7.2Zm-17.7,14.3c-3.9,0-7.1-3.2-7.1-7.1s3.2-7.1,7.1-7.1,7.1,3.2,7.1,7.1-3.2,7.1-7.1,7.1Z"/><path class="cls-7" d="m101.01,77.12c-3-2.9-7-4.8-11.4-5.1h-2.1c-1,0-1.9.2-2.9.4-.3.1-.6.1-.9.2-1.7.5-3.3,1.2-4.8,2.1-3.1,1.9-5.5,4.8-7,8.1h0c-.9,2.2-1.5,4.6-1.5,7.1v.7c0,1.1.2,2.3.4,3.3h0c.3,1.1.6,2.1,1,3.1h0c2.3,5.2,6.9,9.1,12.6,10.4,1.3.3,2.6.4,3.9.4,9.9,0,17.9-8,18-17.9v-.1c.1-4.9-2-9.4-5.3-12.7Zm-11.4,20c-3.9,0-7.1-3.2-7.1-7.1s3.2-7.1,7.1-7.1,7.1,3.2,7.1,7.1-3.2,7.1-7.1,7.1Z"/><path class="cls-2" d="m84.51,107.52c-.2.6-.6,1.1-1,1.6l-11.6,11.5h0l-11.5-11.5c-.5-.5-.8-1-1-1.6-.7-1.7-.3-3.7,1-5.1l6.5-6.5c1.1-1.1,2.6-1.8,4-2,.3-.1.7-.1,1-.1h0c.3,0,.7,0,1,.1,1.5.2,2.9.9,4,2l6.5,6.5c1.4,1.4,1.7,3.4,1.1,5.1Z"/><g class="cls-1"><path class="cls-8" d="m106.51,53.92c-2.7-.5-5.4-.4-7.9.2-.1-1.5-.3-3-.7-4.6l-2.2-7.6-7.6,2.2c-.8.2-1.5.5-2.2.8-1-4.4-3.2-8.6-6.6-12l-7.4-7.2v94.9l11.5-11.5c.5-.5.8-1,1-1.6,1.3.3,2.6.4,3.9.4,9.9,0,17.9-8,18-17.9v-.1c0-5-2-9.5-5.3-12.8,5.8-2.3,10.4-7.4,11.6-13.9l1.5-7.7-7.6-1.6Zm-16.9,43.2c-3.9,0-7.1-3.2-7.1-7.1s3.2-7.1,7.1-7.1,7.1,3.2,7.1,7.1-3.2,7.1-7.1,7.1Z"/></g></g></svg>