<?xml version="1.0" encoding="UTF-8"?><svg id="_圖層_2" xmlns="http://www.w3.org/2000/svg" viewBox="0 0 146 146"><defs><style>.cls-1{fill:#edf3f3;}.cls-2{fill:#7bd1df;}.cls-3{fill:#243239;}.cls-4{fill:#058789;}</style></defs><g id="Layer_2"><circle class="cls-4" cx="73" cy="73" r="73"/><path class="cls-3" d="m53.3,56.7l1,10.4h-10.4l1-10.4v-.3c.1-1.6,1.5-2.7,3.1-2.7h2.2c1.6,0,2.9,1.2,3.1,2.7,0,.1,0,.2,0,.3Z"/><path class="cls-2" d="m53.3,56.4h-8.3c.1-1.6,1.5-2.7,3.1-2.7h2.2c1.5,0,2.8,1.2,3,2.7Z"/><path class="cls-3" d="m33.6,64.2l1,10.4h-10.5l1-10.4v-.3c.1-1.6,1.5-2.7,3.1-2.7h2.2c1.6,0,2.9,1.2,3.1,2.7.1.1.1.2.1.3Z"/><path class="cls-2" d="m33.5,63.9h-8.3c.1-1.6,1.5-2.7,3.1-2.7h2.2c1.6-.1,2.9,1.1,3,2.7Z"/><path class="cls-2" d="m69.1,93.4v15.7l-23.1,5.1v-3.8c0-1.6.8-3.1,2.2-4l18.9-12,2-1Z"/><path class="cls-2" d="m66.6,56.2v22h-.6l-56.6,12.4v-11.4c0-2.3,1.6-4.4,3.8-4.9l51.6-17.6h.2l1.6-.5Z"/><path class="cls-3" d="m92.8,56.7l-1,10.4h10.5l-1-10.4v-.3c-.1-1.6-1.5-2.7-3.1-2.7h-2.2c-1.6,0-2.9,1.2-3.1,2.7-.1.1-.1.2-.1.3Z"/><path class="cls-2" d="m92.8,56.4h8.3c-.1-1.6-1.5-2.7-3.1-2.7h-2.2c-1.5,0-2.8,1.2-3,2.7Z"/><path class="cls-3" d="m112.5,64.2l-1,10.4h10.5l-1-10.4v-.3c-.1-1.6-1.5-2.7-3.1-2.7h-2.2c-1.6,0-2.9,1.2-3.1,2.7-.1.1-.1.2-.1.3Z"/><path class="cls-2" d="m112.6,63.9h8.3c-.1-1.6-1.5-2.7-3.1-2.7h-2.2c-1.6-.1-2.9,1.1-3,2.7Z"/><path class="cls-2" d="m77,93.4v15.7l23.1,5.1v-3.8c0-1.6-.8-3.1-2.2-4l-18.9-12-2-1Z"/><path class="cls-2" d="m79.5,56.2v22h.6l56.6,12.4v-11.4c0-2.3-1.6-4.4-3.8-4.9l-51.6-17.6h-.2l-1.6-.5Z"/><path class="cls-1" d="m83.8,41.9l-5.1,65.2c-.2,3-2.7,5.3-5.7,5.3s-5.5-2.3-5.7-5.3l-5.1-65.2c-.2-3.9,1.1-7.8,3.6-10.9l2.2-2.7c2.6-3.2,7.5-3.2,10,0l2.2,2.7c2.5,3.1,3.8,7,3.6,10.9Z"/><path class="cls-3" d="m74.5,97.7v14.9c0,.5-.2,1.1-.4,1.5l-.6,1c-.2.3-.7.3-.8,0l-.6-1c-.3-.5-.4-1-.4-1.5v-14.9c0-.5.1-1.1.4-1.5l.6-1c.2-.3.7-.3.8,0l.6,1c.2.4.4,1,.4,1.5Z"/><path class="cls-3" d="m79,40.7c-1-3.1-3.5-4.8-6-4.8s-5,1.7-6,4.8c-.5-1.6-.1-3.5,1.1-4.9,1.1-1.4,3-2.3,4.9-2.3s3.7.9,4.9,2.3c1.2,1.5,1.6,3.4,1.1,4.9Z"/></g></svg>