<?xml version="1.0" encoding="UTF-8"?><svg id="_圖層_2" xmlns="http://www.w3.org/2000/svg" viewBox="0 0 157.4 157.4"><defs><style>.cls-1{fill:#f0ecc9;}.cls-2{fill:#edf3f3;}.cls-3{fill:#e3a72f;}.cls-4{fill:#d54b1a;}.cls-5{fill:#414042;}.cls-6{fill:#058789;}</style></defs><g id="Layer_2"><circle class="cls-2" cx="78.7" cy="78.7" r="78.7"/><path class="cls-4" d="m67.59,63.28c-32.1,0-37.4-37.6-37.4-38-.1-.9.2-1.8.8-2.5.6-.7,1.5-1.1,2.4-1.1h24.3v6.3h-20.5c2,8.5,9,28.9,30.5,28.9v6.4h-.1Z"/><path class="cls-4" d="m89.79,63.28v-6.3c21.5,0,28.5-20.4,30.5-28.9h-20.5v-6.3h24.4c.9,0,1.8.4,2.4,1.1.6.7.9,1.6.8,2.5-.2.3-5.4,37.9-37.6,37.9Z"/><path class="cls-4" d="m106.79,20.08h-56.1c-2.2,0-4-1.8-4-4h0c0-2.2,1.8-4,4-4h56.1c2.2,0,4,1.8,4,4h0c0,2.2-1.8,4-4,4Z"/><rect class="cls-4" x="68.79" y="67.58" width="19.8" height="8.8"/><path class="cls-3" d="m106.79,20.08s2.1,27.3-18.1,47.5h-19.8c-20.2-20.2-18.1-47.5-18.1-47.5,0,0,56,0,56,0Z"/><path class="cls-3" d="m100.99,93.28c-3.3-12.6-12.3-17-12.3-17h-19.8s-9,4.4-12.3,17h44.4Z"/><path class="cls-6" d="m108.29,98.18v4.6h-59.1v-4.6c0-2.7,2.2-4.8,4.8-4.8h49.5c2.6-.1,4.8,2.1,4.8,4.8Z"/><path class="cls-3" d="m118.59,109.18v25.3H38.79v-25.3c0-3.5,2.9-6.4,6.4-6.4h67.1c3.5,0,6.3,2.9,6.3,6.4Z"/><path class="cls-1" d="m106.89,112.08v13.1c0,1.8-1.5,3.3-3.3,3.3h-49.8c-1.8,0-3.3-1.5-3.3-3.3v-13.1c0-1.8,1.5-3.3,3.3-3.3h49.8c1.8,0,3.3,1.4,3.3,3.3Z"/><path class="cls-6" d="m128.09,143.98H29.39c0-2.6,1.1-5,2.8-6.7,1.7-1.7,4.1-2.8,6.7-2.8h79.6c5.3,0,9.6,4.3,9.6,9.5Z"/><path class="cls-5" d="m114.29,102.38h-3.6c-.8,0-1.4-.6-1.4-1.4s.6-1.4,1.4-1.4h3.6c.8,0,1.4.6,1.4,1.4s-.6,1.4-1.4,1.4Z"/><path class="cls-5" d="m149.49,102.38h-3.6c-.8,0-1.4-.6-1.4-1.4s.6-1.4,1.4-1.4h3.6c.8,0,1.4.6,1.4,1.4s-.7,1.4-1.4,1.4Z"/><path class="cls-5" d="m143.79,116.08c-.4,0-.7-.1-1-.4l-2.6-2.6c-.5-.5-.5-1.4,0-2,.5-.5,1.4-.5,2,0l2.6,2.6c.5.5.5,1.4,0,2-.3.3-.6.4-1,.4Z"/><path class="cls-5" d="m118.99,91.28c-.4,0-.7-.1-1-.4l-2.6-2.6c-.5-.5-.5-1.4,0-2,.5-.5,1.4-.5,2,0l2.6,2.6c.5.5.5,1.4,0,2-.3.2-.7.4-1,.4Z"/><path class="cls-5" d="m130.09,86.68c-.8,0-1.4-.6-1.4-1.4v-3.6c0-.8.6-1.4,1.4-1.4s1.4.6,1.4,1.4v3.6c0,.7-.6,1.4-1.4,1.4Z"/><path class="cls-5" d="m130.09,121.78c-.8,0-1.4-.6-1.4-1.4v-3.6c0-.8.6-1.4,1.4-1.4s1.4.6,1.4,1.4v3.6c0,.8-.6,1.4-1.4,1.4Z"/><path class="cls-5" d="m141.19,91.28c-.4,0-.7-.1-1-.4-.5-.5-.5-1.4,0-2l2.6-2.6c.5-.5,1.4-.5,2,0,.5.5.5,1.4,0,2l-2.6,2.6c-.3.3-.6.4-1,.4Z"/><path class="cls-5" d="m116.39,116.08c-.4,0-.7-.1-1-.4-.5-.5-.5-1.4,0-2l2.6-2.6c.5-.5,1.4-.5,2,0,.5.5.5,1.4,0,2l-2.6,2.6c-.3.3-.6.4-1,.4Z"/><path class="cls-5" d="m16.89,53.98h-3.6c-.8,0-1.4-.6-1.4-1.4s.6-1.4,1.4-1.4h3.6c.8,0,1.4.6,1.4,1.4s-.7,1.4-1.4,1.4Z"/><path class="cls-5" d="m51.99,53.98h-3.6c-.8,0-1.4-.6-1.4-1.4s.6-1.4,1.4-1.4h3.6c.8,0,1.4.6,1.4,1.4s-.6,1.4-1.4,1.4Z"/><path class="cls-5" d="m46.39,67.68c-.4,0-.7-.1-1-.4l-2.6-2.6c-.5-.5-.5-1.4,0-2,.5-.5,1.4-.5,2,0l2.6,2.6c.5.5.5,1.4,0,2-.3.3-.7.4-1,.4Z"/><path class="cls-5" d="m21.49,42.78c-.4,0-.7-.1-1-.4l-2.6-2.6c-.5-.5-.5-1.4,0-2,.5-.5,1.4-.5,2,0l2.6,2.6c.5.5.5,1.4,0,2-.3.3-.6.4-1,.4Z"/><path class="cls-5" d="m32.59,38.18c-.8,0-1.4-.6-1.4-1.4v-3.6c0-.8.6-1.4,1.4-1.4s1.4.6,1.4,1.4v3.6c0,.8-.6,1.4-1.4,1.4Z"/><path class="cls-5" d="m32.59,73.38c-.8,0-1.4-.6-1.4-1.4v-3.6c0-.8.6-1.4,1.4-1.4s1.4.6,1.4,1.4v3.6c0,.8-.6,1.4-1.4,1.4Z"/><path class="cls-5" d="m43.79,42.88c-.4,0-.7-.1-1-.4-.5-.5-.5-1.4,0-2l2.6-2.6c.5-.5,1.4-.5,2,0,.5.5.5,1.4,0,2l-2.6,2.6c-.3.2-.7.4-1,.4Z"/><path class="cls-5" d="m18.89,67.68c-.4,0-.7-.1-1-.4-.5-.5-.5-1.4,0-2l2.6-2.6c.5-.5,1.4-.5,2,0,.5.5.5,1.4,0,2l-2.6,2.6c-.2.3-.6.4-1,.4Z"/></g></svg>