<?xml version="1.0" encoding="UTF-8"?><svg id="_圖層_2" xmlns="http://www.w3.org/2000/svg" xmlns:xlink="http://www.w3.org/1999/xlink" viewBox="0 0 331.2 331.2"><defs><style>.cls-1{fill:none;}.cls-2{clip-path:url(#clippath);}.cls-3{fill:#f77c5b;}.cls-4{fill:#edf3f3;}.cls-5{fill:#cdd1d1;}.cls-6{fill:#543c66;}.cls-7{clip-path:url(#clippath-1);}.cls-8{clip-path:url(#clippath-3);}.cls-9{clip-path:url(#clippath-2);}</style><clipPath id="clippath"><polygon class="cls-1" points="247.87 225.81 139.27 225.81 120.77 100.41 266.37 100.41 247.87 225.81"/></clipPath><clipPath id="clippath-1"><polygon class="cls-1" points="247.87 225.81 139.27 225.81 120.77 100.41 266.37 100.41 247.87 225.81"/></clipPath><clipPath id="clippath-2"><circle class="cls-1" cx="120.77" cy="188.09" r="72.7" transform="translate(-97.63 140.49) rotate(-45)"/></clipPath><clipPath id="clippath-3"><circle class="cls-1" cx="120.77" cy="188.09" r="72.7" transform="translate(-97.63 140.49) rotate(-45)"/></clipPath></defs><g id="_圖層_1-2"><g id="_圖層_2-2"><circle class="cls-6" cx="165.6" cy="165.6" r="165.6"/><path class="cls-4" d="m251.17,229.71h-115.2l-19.7-133.2h154.7l-19.8,133.2Zm-108.5-7.8h101.8l17.4-117.6H125.27l17.4,117.6Z"/><path class="cls-5" d="m270.87,100.41H116.37c-6.8,0-12.3-5.5-12.3-12.3h0c0-6.8,5.5-12.3,12.3-12.3h154.5c6.8,0,12.3,5.5,12.3,12.3h0c0,6.8-5.5,12.3-12.3,12.3Z"/><g class="cls-2"><rect class="cls-4" x="96.56" y="28.95" width="5.8" height="320.1" transform="translate(-104.51 125.69) rotate(-45)"/><rect class="cls-4" x="143.64" y="28.91" width="5.8" height="320.1" transform="translate(-90.69 158.97) rotate(-45)"/><rect class="cls-4" x="190.65" y="28.93" width="5.8" height="320.1" transform="translate(-76.94 192.21) rotate(-45)"/><rect class="cls-4" x="237.66" y="28.95" width="5.8" height="320.1" transform="translate(-63.19 225.46) rotate(-45)"/><rect class="cls-4" x="284.74" y="28.91" width="5.8" height="320.1" transform="translate(-49.36 258.74) rotate(-45)"/></g><g class="cls-7"><rect class="cls-4" x="127.59" y="186.13" width="320.1" height="5.8" transform="translate(-49.41 258.76) rotate(-45)"/><rect class="cls-4" x="80.58" y="186.1" width="320.1" height="5.8" transform="translate(-63.17 225.51) rotate(-45)"/><rect class="cls-4" x="33.5" y="186.15" width="320.1" height="5.8" transform="translate(-76.99 192.23) rotate(-45)"/><rect class="cls-4" x="-13.51" y="186.13" width="320.1" height="5.8" transform="translate(-90.74 158.99) rotate(-45)"/><rect class="cls-4" x="-60.51" y="186.1" width="320.1" height="5.8" transform="translate(-104.49 125.74) rotate(-45)"/></g><circle id="SVGID" class="cls-3" cx="120.77" cy="188.09" r="72.7" transform="translate(-97.63 140.49) rotate(-45)"/><g class="cls-9"><path class="cls-4" d="m120.97,212.71c-28,0-54.9-5.1-74-13.9l-2.6-1.2,2.4-5.2,2.6,1.2c18.3,8.5,44.4,13.4,71.5,13.4s52.8-4.8,71.1-13.2l2.6-1.2,2.4,5.2-2.6,1.2c-19.2,8.8-45.3,13.7-73.4,13.7Z"/></g><g class="cls-8"><path class="cls-4" d="m15.57,282.41c-54,0-97.9-43.9-97.9-97.9S-38.43,86.61,15.57,86.61s97.9,43.9,97.9,97.9c.1,54-43.9,97.9-97.9,97.9Zm0-190.1c-50.9,0-92.2,41.4-92.2,92.2s41.4,92.2,92.2,92.2,92.2-41.4,92.2-92.2S66.47,92.31,15.57,92.31Z"/><path class="cls-4" d="m15.57,249.31c-35.7,0-64.8-29.1-64.8-64.8,0-35.8,29.1-64.8,64.8-64.8s64.8,29.1,64.8,64.8-29,64.8-64.8,64.8Zm0-123.9c-32.6,0-59.1,26.5-59.1,59.1s26.5,59.1,59.1,59.1,59.1-26.5,59.1-59.1-26.5-59.1-59.1-59.1Z"/><path class="cls-4" d="m225.87,282.41c-54,0-97.9-43.9-97.9-97.9s43.9-97.9,97.9-97.9,97.9,43.9,97.9,97.9c.1,54-43.9,97.9-97.9,97.9Zm0-190.1c-50.9,0-92.2,41.4-92.2,92.2s41.4,92.2,92.2,92.2,92.2-41.4,92.2-92.2c.1-50.9-41.3-92.2-92.2-92.2Z"/><path class="cls-4" d="m225.87,249.31c-35.7,0-64.8-29.1-64.8-64.8s29.1-64.8,64.8-64.8,64.8,29.1,64.8,64.8-29,64.8-64.8,64.8Zm0-123.9c-32.6,0-59.1,26.5-59.1,59.1s26.5,59.1,59.1,59.1,59.1-26.5,59.1-59.1c0-32.6-26.5-59.1-59.1-59.1Z"/></g></g></g></svg>