<?xml version="1.0" encoding="UTF-8"?><svg id="_圖層_2" xmlns="http://www.w3.org/2000/svg" viewBox="0 0 331.2 331.2"><defs><style>.cls-1{fill:#f77c5b;}.cls-2{fill:#edf3f3;}.cls-3{fill:#e3a72f;}.cls-4{fill:#f0d355;}.cls-5{fill:#d54b1a;}.cls-6{fill:#243239;}.cls-7{fill:#058789;}</style></defs><g id="_圖層_1-2"><g id="_圖層_2-2"><circle class="cls-4" cx="165.6" cy="165.6" r="165.6"/><path class="cls-2" d="m211.27,267.11H80.27c-6.4,0-11.5-5.1-11.5-11.5V70.81c0-6.4,5.1-11.5,11.5-11.5h131c6.4,0,11.5,5.1,11.5,11.5v184.7c0,6.4-5.1,11.6-11.5,11.6Z"/><path class="cls-7" d="m256.77,157.81h-68c-3.1,0-5.6-2.5-5.6-5.6v-19.9h79.2v19.9c0,3.1-2.5,5.6-5.6,5.6Z"/><rect class="cls-1" x="194.87" y="157.81" width="55.8" height="86.8"/><path class="cls-1" d="m191.67,115.51h0c-4.6,0-8.4,3.8-8.4,8.4v8.4h16.8v-8.4c0-4.6-3.8-8.4-8.4-8.4Z"/><path class="cls-1" d="m222.77,115.51h0c-4.6,0-8.4,3.8-8.4,8.4v8.4h16.8v-8.4c0-4.6-3.7-8.4-8.4-8.4Z"/><path class="cls-1" d="m253.97,115.51h0c-4.6,0-8.4,3.8-8.4,8.4v8.4h16.8v-8.4c0-4.6-3.8-8.4-8.4-8.4Z"/><rect class="cls-6" x="188.07" y="157.81" width="69.4" height="9.7"/><path class="cls-7" d="m188.77,254.31h68c3.1,0,5.6,2.5,5.6,5.6v19.9h-79.2v-19.9c0-3.1,2.5-5.6,5.6-5.6Z"/><rect class="cls-6" x="188.12" y="244.66" width="69.4" height="9.7"/><path class="cls-5" d="m144.77,204.31h-6.3v-4.2h6.3v4.2Zm0-8.4h-6.3v-4.2h6.3v4.2Zm0-8.4h-6.3v-4.2h6.3v4.2Zm0-8.4h-6.3v-4.2h6.3v4.2Zm0-8.4h-6.3v-4.2h6.3v4.2Zm0-8.4h-6.3v-4.2h6.3v4.2Zm0-8.4h-6.3v-4.2h6.3v4.2Zm-6.3-8.4h0l6.3-.1-6.3.1Z"/><polygon class="cls-5" points="150.97 148.21 141.57 131.81 132.17 148.21 150.97 148.21"/><path class="cls-3" d="m141.57,121.61c-12.3,0-22.4-10-22.4-22.4s10-22.4,22.4-22.4,22.4,10,22.4,22.4-10,22.4-22.4,22.4Zm0-38.5c-8.9,0-16.1,7.2-16.1,16.1s7.2,16.1,16.1,16.1,16.1-7.2,16.1-16.1-7.2-16.1-16.1-16.1Z"/><path class="cls-3" d="m157.67,247.01c-.8,0-1.6-.3-2.2-.9l-32.1-32.1c-1.2-1.2-1.2-3.2,0-4.5,1.2-1.2,3.2-1.2,4.5,0l32.1,32.1c1.2,1.2,1.2,3.2,0,4.5-.7.6-1.5.9-2.3.9Z"/><path class="cls-3" d="m125.57,247.01c-.8,0-1.6-.3-2.2-.9-1.2-1.2-1.2-3.2,0-4.5l32.1-32.1c1.2-1.2,3.2-1.2,4.5,0,1.2,1.2,1.2,3.2,0,4.5l-32.1,32.1c-.7.6-1.5.9-2.3.9Z"/></g></g></svg>