<?xml version="1.0" encoding="UTF-8"?><svg id="_圖層_2" xmlns="http://www.w3.org/2000/svg" viewBox="0 0 149 149"><defs><style>.cls-1{fill:#edf3f3;}.cls-2{fill:#cdd1d1;}.cls-3{fill:#243239;}.cls-4{fill:#058789;}</style></defs><g id="Layer_2"><circle class="cls-4" cx="74.5" cy="74.5" r="74.5"/><path class="cls-2" d="m103.8,88.8h-58.7c-1.4,0-2.6-1.1-2.6-2.6h0c0-1.4,1.1-2.6,2.6-2.6h58.7c1.4,0,2.6,1.1,2.6,2.6h0c0,1.4-1.2,2.6-2.6,2.6Z"/><path class="cls-1" d="m116,47.3c0-9.3-7.6-16.9-16.9-16.9-1.2,0-2.3.1-3.4.3-2.3-9.6-10.9-16.8-21.2-16.8s-18.9,7.2-21.2,16.8c-1.1-.2-2.2-.3-3.4-.3-9.3,0-16.9,7.6-16.9,16.9,0,7.7,5.2,14.2,12.3,16.3v20.1h58.6v-20.1c7-2.1,12.1-8.6,12.1-16.3Z"/><path class="cls-3" d="m63.5,122v-4.4l-23.2-1.1c-1.8-.1-3.4,1.4-3.4,3.2s1.5,3.3,3.4,3.2l23.2-.9Zm-24.1-2.2c0-.7.6-1.4,1.4-1.4.7,0,1.4.6,1.4,1.4s-.6,1.4-1.4,1.4c-.7-.1-1.4-.7-1.4-1.4Z"/><rect class="cls-1" x="63.5" y="118.2" width="24.1" height="3.4"/><path class="cls-1" d="m99,127v-14.5h-6.9c-2.5,0-4.6,2-4.6,4.6v5.4c0,2.5,2,4.6,4.6,4.6h6.9v-.1Z"/><path class="cls-1" d="m112.1,114.4h0c0-1.1-.9-1.9-1.9-1.9h-11.2v3.8h11.2c1.1,0,1.9-.8,1.9-1.9Z"/><path class="cls-1" d="m112.1,119.8h0c0-1.1-.9-1.9-1.9-1.9h-11.2v3.8h11.2c1.1,0,1.9-.9,1.9-1.9Z"/><path class="cls-1" d="m112.1,125.1h0c0-1.1-.9-1.9-1.9-1.9h-11.2v3.8h11.2c1.1,0,1.9-.8,1.9-1.9Z"/><path class="cls-3" d="m86.2,103.4h22.7c2.2,0,3.9-1.8,3.9-3.9s-1.7-3.9-3.9-3.9h-22.7v7.8Zm24-3.9c0,.7-.6,1.4-1.4,1.4-.7,0-1.4-.6-1.4-1.4,0-.7.6-1.4,1.4-1.4.8.1,1.4.7,1.4,1.4Z"/><path class="cls-1" d="m86.2,95.6h-50.1s14,13.3,48.5,13.7c.9,0,1.6-.7,1.6-1.6v-12.1Z"/></g></svg>