<?xml version="1.0" encoding="UTF-8"?><svg id="_圖層_2" xmlns="http://www.w3.org/2000/svg" viewBox="0 0 157.43 157.43"><defs><style>.cls-1{fill:#f77c5b;}.cls-2{fill:#edf3f3;}.cls-3{fill:#7bd1df;}.cls-4{fill:#231f20;}.cls-5{fill:#243239;}.cls-6{fill:#058789;}.cls-7{opacity:.15;}.cls-8{opacity:.5;}.cls-9{opacity:.7;}</style></defs><g id="_圖層_1-2"><g id="Layer_2"><circle class="cls-1" cx="78.71" cy="78.71" r="78.7"/><circle class="cls-5" cx="59.68" cy="53.66" r="13.2"/><circle class="cls-5" cx="97.78" cy="53.66" r="13.2"/><path class="cls-6" d="m135.48,81.46l-18.7-24.6h0c-2.2-7-8.8-12.1-16.6-12.1s-13.9,4.7-16.3,11.4h-10.3c-2.4-6.6-8.8-11.4-16.3-11.4s-14.3,5.1-16.6,12.1h0l-18.5,24.6h44.3v12.7h24.4v-12.7h44.6Z"/><rect class="cls-5" x="67.78" y="83.56" width="21.5" height="19.4"/><circle class="cls-5" cx="45.98" cy="93.26" r="26.6"/><circle class="cls-3" cx="45.98" cy="93.26" r="18.8"/><g class="cls-8"><circle class="cls-2" cx="45.98" cy="93.26" r="13.7"/></g><g class="cls-9"><path class="cls-2" d="m42.08,84.86c-2.4,1.1-4.2,3.2-5,5.7l-7.9-2.4c1.5-4.8,5-8.8,9.4-10.8l3.5,7.5Z"/></g><g class="cls-9"><circle class="cls-2" cx="45.98" cy="93.26" r="3.4"/></g><circle class="cls-5" cx="111.48" cy="93.26" r="26.6"/><circle class="cls-3" cx="111.48" cy="93.26" r="18.8"/><g class="cls-8"><circle class="cls-2" cx="111.48" cy="93.26" r="13.7"/></g><g class="cls-9"><path class="cls-2" d="m107.58,84.86c-2.4,1.1-4.2,3.2-5,5.7l-7.9-2.4c1.5-4.8,4.9-8.7,9.4-10.7l3.5,7.4Z"/></g><g class="cls-9"><path class="cls-2" d="m114.88,93.26c0,1.9-1.5,3.4-3.4,3.4s-3.4-1.5-3.4-3.4,1.5-3.4,3.4-3.4,3.4,1.5,3.4,3.4Z"/></g><g class="cls-7"><polygon class="cls-4" points="70.88 83.96 73.58 56.16 83.88 56.16 86.58 83.96 70.88 83.96"/></g><path class="cls-1" d="m82.78,95.06h-8.1c-.5,0-.9-.4-.9-.9v-1.6c0-.5.4-.9.9-.9h8.1c.5,0,.9.4.9.9v1.6c0,.4-.4.9-.9.9Z"/></g></g></svg>