<?xml version="1.0" encoding="UTF-8"?><svg id="_圖層_2" xmlns="http://www.w3.org/2000/svg" viewBox="0 0 331.2 331.2"><defs><style>.cls-1{fill:#edf3f3;}.cls-2{fill:#7bd1df;}.cls-3{fill:#243239;}.cls-4{fill:#43a8ed;}.cls-5{fill:#543c66;}</style></defs><g id="_圖層_1-2"><g id="_圖層_2-2"><circle class="cls-4" cx="165.6" cy="165.6" r="165.6"/><path class="cls-3" d="m120.71,188.02h12.9v-41.3h-12.9c-7,0-12.7,5.7-12.7,12.7v15.9c0,7,5.7,12.7,12.7,12.7Z"/><path class="cls-3" d="m276.71,188.02h-12.9v-41.3h12.9c7,0,12.7,5.7,12.7,12.7v15.9c0,7-5.7,12.7-12.7,12.7Z"/><path class="cls-1" d="m255.21,136.12h-113c-4.8,0-8.6,3.9-8.6,8.6v42.4c0,8.7,7.1,15.8,15.8,15.8h23.9c7.7,0,14.5-4.8,17-12.1l4.7-13.2c1.3-3.6,6.3-3.6,7.5,0l4.7,13.2c2.5,7.2,9.4,12.1,17,12.1h23.9c8.7,0,15.8-7.1,15.8-15.8v-42.4c-.1-4.8-4-8.6-8.7-8.6Z"/><path class="cls-5" d="m248.01,206.52h-23.9c-9.2,0-17.5-5.8-20.5-14.5l-4.7-13.2c0-.1-.1-.2-.3-.2s-.3.1-.3.2l-4.7,13.2c-3.1,8.7-11.3,14.5-20.5,14.5h-23.9c-10.7,0-19.4-8.7-19.4-19.4v-42.4c0-6.8,5.5-12.3,12.3-12.3h113c6.8,0,12.3,5.5,12.3,12.3v42.4c.1,10.7-8.6,19.4-19.4,19.4Zm-49.3-35.3c3.3,0,6.1,2,7.2,5.1l4.7,13.2c2,5.8,7.5,9.6,13.6,9.6h23.9c6.7,0,12.1-5.4,12.1-12.1v-42.4c0-2.7-2.2-4.9-4.9-4.9h-113c-2.7,0-5,2.2-5,5v42.4c0,6.7,5.4,12.1,12.1,12.1h23.9c6.1,0,11.6-3.9,13.6-9.6l4.7-13.2c1-3.2,3.8-5.2,7.1-5.2Z"/><path class="cls-3" d="m220.41,125.82h-43.4c-2.6,0-4.6-2.1-4.6-4.6v-5.4c0-2.6,2.1-4.6,4.6-4.6h43.4c2.6,0,4.6,2.1,4.6,4.6v5.4c0,2.5-2.1,4.6-4.6,4.6Z"/><path class="cls-2" d="m178.51,156.82h-26.5c-2.4,0-4.3-1.9-4.3-4.3h0c0-2.4,1.9-4.3,4.3-4.3h26.5c2.4,0,4.3,1.9,4.3,4.3h0c0,2.4-1.9,4.3-4.3,4.3Z"/><path class="cls-5" d="m220.91,230.72h-44.3c-5.5,0-10-4.5-10-10h0c0-5.5,4.5-10,10-10h44.3c5.5,0,10,4.5,10,10h0c0,5.5-4.5,10-10,10Z"/><circle class="cls-1" cx="263.73" cy="111.11" r="12.9"/><circle class="cls-1" cx="234.61" cy="89.52" r="11.2" transform="translate(108.67 306.76) rotate(-80.78)"/><circle class="cls-1" cx="259.01" cy="64.22" r="6.5"/><path class="cls-1" d="m161.61,294.62h-38.6c-25.9,0-46.9-21.1-46.9-46.9V58.12h19.6v189.5c0,15.1,12.3,27.3,27.3,27.3h38.6c15.1,0,27.3-12.3,27.3-27.3v-17h19.6v17c0,25.9-21.1,47-46.9,47Z"/><rect class="cls-3" x="71.01" y="46.22" width="30.6" height="49.4"/></g></g></svg>