<?xml version="1.0" encoding="UTF-8"?><svg id="_圖層_2" xmlns="http://www.w3.org/2000/svg" viewBox="0 0 331.2 331.2"><defs><style>.cls-1{fill:#f77c5b;}.cls-2{fill:#edf3f3;}.cls-3{fill:#cdd1d1;}.cls-4{fill:#243239;}.cls-5{fill:#39b54a;}</style></defs><g id="_圖層_1-2"><g id="_圖層_2-2"><circle class="cls-1" cx="165.6" cy="165.6" r="165.6"/><circle class="cls-2" cx="165.6" cy="118.4" r="80.4"/><circle class="cls-3" cx="121.61" cy="87.79" r="16.9"/><rect class="cls-4" x="133.1" y="192.2" width="65.1" height="9"/><polygon class="cls-4" points="180.7 228.6 150.5 228.6 133.1 201.2 198.1 201.2 180.7 228.6"/><polygon class="cls-4" points="174.8 288 156.4 288 150.5 228.6 180.7 228.6 174.8 288"/><path class="cls-5" d="m165.6,288s2.2-37.1-38.9-54.7c-1.9-.8-3.9,1.2-2.9,3.1,5,9.8,14.8,31.4,14.8,51.6h27Z"/><path class="cls-5" d="m143.4,288s-1.9-27.1-31.8-40.6c-2-.9-3.9,1.2-3,3.1,3.9,7.9,10.4,23.2,10.4,37.5h24.4Z"/><path class="cls-5" d="m165.6,288s-2.2-37.1,38.9-54.7c1.9-.8,3.9,1.2,2.9,3.1-5,9.8-14.8,31.4-14.8,51.6h-27Z"/><path class="cls-5" d="m187.8,288s1.9-27.1,31.8-40.6c2-.9,3.9,1.2,3,3.1-3.9,7.9-10.4,23.2-10.4,37.5h-24.4Z"/><path class="cls-2" d="m173.5,276.7c-.2,0-.5,0-.7-.1-1.3-.4-2-1.7-1.7-3,.2-.8,5.8-19.3,22-29.5,1.1-.7,2.6-.4,3.4.8.7,1.1.4,2.6-.8,3.4-14.7,9.3-19.9,26.6-20,26.8-.2,1-1.2,1.6-2.2,1.6Z"/><path class="cls-2" d="m131.4,275.4c-1,0-1.9-.6-2.3-1.6-2.1-5.9-8-8.9-8.1-8.9-1.2-.6-1.7-2.1-1.1-3.3s2.1-1.7,3.3-1.1c.3.2,7.7,3.9,10.5,11.6.5,1.3-.2,2.7-1.5,3.1-.3.1-.5.2-.8.2Z"/></g></g></svg>