<?xml version="1.0" encoding="UTF-8"?><svg id="_圖層_2" xmlns="http://www.w3.org/2000/svg" viewBox="0 0 143.8 143.8"><defs><style>.cls-1{opacity:.1;}.cls-2{fill:#f77c5b;}.cls-3{fill:#edf3f3;}.cls-4{fill:#fdda92;}.cls-5{fill:#cdd1d1;}.cls-6{fill:#543c66;}.cls-7{fill:#503d2e;}</style></defs><g id="Layer_2"><circle class="cls-3" cx="71.9" cy="71.9" r="71.9"/><path class="cls-6" d="m36.99,50.51l-1.5,1.5c-.3.3-.9.3-1.2,0l-1.6-1.5c-.3-.3-.3-.9,0-1.2l1.5-1.5c.3-.3.9-.3,1.2,0l1.5,1.5c.4.3.4.9.1,1.2Z"/><path class="cls-6" d="m51.19,32.01l1.5,1.5c.3.3.3.9,0,1.2l-1.5,1.5c-.3.3-.9.3-1.2,0l-1.5-1.5c-.3-.3-.3-.9,0-1.2l1.5-1.5c.3-.3.9-.3,1.2,0Z"/><rect class="cls-5" x="33.48" y="40.95" width="18.4" height="2.2" transform="translate(-17.23 42.5) rotate(-45)"/><path class="cls-6" d="m40.79,54.31l-1.5,1.5c-.3.3-.9.3-1.2,0l-1.5-1.5c-.3-.3-.3-.9,0-1.2l1.5-1.5c.3-.3.9-.3,1.2,0l1.5,1.5c.4.4.4.9,0,1.2Z"/><path class="cls-6" d="m54.99,35.91l1.5,1.5c.3.3.3.9,0,1.2l-1.5,1.5c-.3.3-.9.3-1.2,0l-1.5-1.5c-.3-.3-.3-.9,0-1.2l1.5-1.5c.4-.4.9-.4,1.2,0Z"/><rect class="cls-5" x="37.41" y="44.78" width="18.4" height="2.2" transform="translate(-18.79 46.4) rotate(-45)"/><path class="cls-2" d="m104.69,73.21c8.5,8.5,8.5,22.3,0,30.9-8.5,8.5-22.3,8.5-30.9,0-4-4-6.1-9.2-6.4-14.4-2.2-.9-4.3-2.2-6.1-4-5.7-5.7-6.7-14.3-3-21,.8-1.4,1.8-2.8,3-4s2.6-2.2,4-3c6.7-3.7,15.3-2.7,21,3,1.8,1.8,3.1,3.9,4,6.1,5.3.2,10.4,2.4,14.4,6.4Z"/><rect class="cls-5" x="60.57" y="45.8" width="9.9" height="38" transform="translate(-26.63 65.31) rotate(-45)"/><circle class="cls-4" cx="78.89" cy="78.21" r="9.7"/><path class="cls-6" d="m83.99,73.21c2.8,2.8,2.8,7.3,0,10.1-2.8,2.8-7.3,2.8-10.1,0-2.8-2.8-2.8-7.3,0-10.1,2.8-2.8,7.3-2.8,10.1,0Z"/><path class="cls-4" d="m98.09,88.41l-9,9c-.8.8-2.2.8-3.1,0h0c-.8-.8-.8-2.2,0-3.1l9-9c.8-.8,2.2-.8,3.1,0h0c.9.8.9,2.2,0,3.1Z"/><path class="cls-2" d="m46.29,33.21l1.5,2.1,1.3,1.8,1.9,2.7,1.3,1.8,3.2,4.4c.5.6.4,1.5-.2,2l-6.5,6.7c-.6.6-1.4.6-2,.2l-4.5-3.2-1.8-1.3-2.7-1.9-1.8-1.3-2.1-1.5c-1.1-.8-1.2-2.4-.3-3.3l9.3-9.3c1.1-1.1,2.6-1,3.4.1Z"/><path class="cls-3" d="m46.59,49.41h0c-.5.5-1.2.5-1.7,0l-5.3-5.3c-.5-.5-.5-1.2,0-1.7h0c.5-.5,1.2-.5,1.7,0l5.3,5.3c.5.5.5,1.2,0,1.7Z"/><path class="cls-3" d="m50.09,45.91h0c-.5.5-1.2.5-1.7,0l-5.3-5.3c-.5-.5-.5-1.2,0-1.7h0c.5-.5,1.2-.5,1.7,0l5.3,5.3c.5.5.5,1.2,0,1.7Z"/><g class="cls-1"><path class="cls-7" d="m104.69,73.21c8.5,8.5,8.5,22.3,0,30.9L38.29,37.61l4.7-4.7c1-1,2.5-.8,3.3.3l1.5,2.1.6-.6c-.3-.3-.3-.9,0-1.2l1.5-1.5c.3-.3.9-.3,1.2,0l1.5,1.5c.3.3.3.9,0,1.2l-1.5,1.5c-.3.3-.9.3-1.2,0l-.9.9,1.9,2.7,1.2-1.2c-.3-.3-.3-.9,0-1.2l1.5-1.5c.3-.3.9-.3,1.2,0l1.5,1.5c.3.3.3.9,0,1.2l-1.5,1.5c-.3.3-.9.3-1.2,0l-1.5,1.5,3.2,4.4c.5.6.4,1.5-.2,2l.2-.2,9.8,9.8c6.7-3.7,15.3-2.7,21,3,1.8,1.8,3.1,3.9,4,6.1,5.5.3,10.6,2.5,14.6,6.5Z"/></g></g></svg>