<?xml version="1.0" encoding="UTF-8"?><svg id="_圖層_2" xmlns="http://www.w3.org/2000/svg" viewBox="0 0 146.03 146.03"><defs><style>.cls-1{fill:#f77c5b;}.cls-2{fill:#edf3f3;}.cls-3{fill:#fff;}.cls-4{fill:#fdda92;}.cls-5{fill:#231f20;}.cls-6{fill:#058789;}.cls-7{opacity:.2;}</style></defs><g id="Layer_2"><circle class="cls-4" cx="73.01" cy="73.01" r="73"/><circle class="cls-1" cx="67.24" cy="78.2" r="18.5"/><path class="cls-6" d="m122,107.78h-60.9l6.5-12.5,16-31,11.3-21.8,11.3,21.8,19.4,37.6c1.4,2.7-.6,5.9-3.6,5.9Z"/><polygon class="cls-2" points="106.2 64.28 83.6 64.28 94.9 42.38 106.2 64.28"/><g class="cls-7"><path class="cls-5" d="m122,107.78h-27.1V42.38l11.3,21.9,19.4,37.6c1.4,2.7-.6,5.9-3.6,5.9Z"/></g><path class="cls-6" d="m73.5,107.78H23.9c-3,0-5-3.2-3.6-5.9l15.2-29.5,9.8-19,9.8,19,11,21.2h0l7.4,14.2Z"/><polygon class="cls-2" points="55.2 72.38 35.5 72.38 45.4 53.38 55.2 72.38"/><g class="cls-7"><polygon class="cls-5" points="73.5 107.78 45.4 107.78 45.4 53.38 55.2 72.38 66.2 93.58 66.2 93.58 73.5 107.78"/></g><path class="cls-3" d="m49.9,44.98h-8.9c-1.1,0-2-.9-2-2h0c0-1.1.9-2,2-2h8.9c1.1,0,2,.9,2,2h0c0,1.1-.9,2-2,2Z"/><path class="cls-3" d="m83.4,54.58h-12.5c-1.6,0-2.8-1.3-2.8-2.8h0c0-1.6,1.3-2.8,2.8-2.8h12.5c1.6,0,2.8,1.3,2.8,2.8h0c0,1.5-1.2,2.8-2.8,2.8Z"/><path class="cls-3" d="m101.1,31.18h-12.5c-1.6,0-2.8-1.3-2.8-2.8h0c0-1.6,1.3-2.8,2.8-2.8h12.5c1.6,0,2.8,1.3,2.8,2.8h0c0,1.5-1.2,2.8-2.8,2.8Z"/><path class="cls-3" d="m60.4,74.38h-8.9c-1.1,0-2-.9-2-2h0c0-1.1.9-2,2-2h8.9c1.1,0,2,.9,2,2h0c0,1.1-.9,2-2,2Z"/><path class="cls-3" d="m103.4,94.68h-15.5c-1.9,0-3.5-1.6-3.5-3.5h0c0-1.9,1.6-3.5,3.5-3.5h15.5c1.9,0,3.5,1.6,3.5,3.5h0c0,1.9-1.6,3.5-3.5,3.5Z"/><path class="cls-3" d="m32.2,61.68h-9c-1.1,0-2-.9-2-2h0c0-1.1.9-2,2-2h9c1.1,0,2,.9,2,2h0c0,1.1-.9,2-2,2Z"/><path class="cls-3" d="m121.4,63.68h-8.9c-1.1,0-2-.9-2-2h0c0-1.1.9-2,2-2h8.9c1.1,0,2,.9,2,2h0c.1,1.1-.8,2-2,2Z"/></g></svg>