<?xml version="1.0" encoding="UTF-8"?><svg id="_圖層_2" xmlns="http://www.w3.org/2000/svg" viewBox="0 0 157.4 157.4"><defs><style>.cls-1{fill:#f0ecc9;}.cls-2{fill:#f77c5b;}.cls-3{fill:#fff;}.cls-4{fill:#e3a72f;}.cls-5{fill:#d54b1a;}.cls-6{fill:#243239;}.cls-7{fill:#058789;}</style></defs><g id="_圖層_1-2"><g id="Layer_2"><circle class="cls-2" cx="78.7" cy="78.7" r="78.7"/><path class="cls-3" d="m130,66.5h-6.6c-.8,0-1.4-.6-1.4-1.4s.6-1.4,1.4-1.4h6.6c.8,0,1.4.6,1.4,1.4s-.6,1.4-1.4,1.4Z"/><path class="cls-3" d="m33.9,66.5h-6.6c-.8,0-1.4-.6-1.4-1.4s.6-1.4,1.4-1.4h6.6c.8,0,1.4.6,1.4,1.4-.1.8-.7,1.4-1.4,1.4Z"/><path class="cls-3" d="m121.9,54.9c-.6,0-1.2-.4-1.3-1-.2-.7.2-1.5,1-1.7l6.3-1.7c.7-.2,1.5.2,1.7,1,.2.7-.2,1.5-1,1.7l-6.3,1.7h-.4Z"/><path class="cls-3" d="m29,79.8c-.6,0-1.2-.4-1.3-1-.2-.7.2-1.5,1-1.7l6.3-1.7c.7-.2,1.5.2,1.7,1,.2.7-.2,1.5-1,1.7l-6.3,1.7h-.4Z"/><path class="cls-3" d="m117.5,44.1c-.5,0-.9-.2-1.2-.7-.4-.7-.2-1.5.5-1.9l5.7-3.3c.7-.4,1.5-.2,1.9.5s.2,1.5-.5,1.9l-5.7,3.3c-.3.2-.5.2-.7.2Z"/><path class="cls-3" d="m34.2,92.2c-.5,0-.9-.2-1.2-.7-.4-.7-.2-1.5.5-1.9l5.7-3.3c.7-.4,1.5-.2,1.9.5s.2,1.5-.5,1.9l-5.7,3.3c-.3.2-.5.2-.7.2Z"/><path class="cls-3" d="m110.3,34.9c-.4,0-.7-.1-1-.4-.5-.5-.5-1.4,0-2l4.6-4.6c.5-.5,1.4-.5,2,0,.5.5.5,1.4,0,2l-4.6,4.6c-.3.2-.6.4-1,.4Z"/><path class="cls-3" d="m42.3,102.9c-.4,0-.7-.1-1-.4-.5-.5-.5-1.4,0-2l4.6-4.6c.5-.5,1.4-.5,2,0,.5.5.5,1.4,0,2l-4.6,4.6c-.3.2-.6.4-1,.4Z"/><path class="cls-3" d="m101,27.7c-.2,0-.5-.1-.7-.2-.7-.4-.9-1.2-.5-1.9l3.3-5.7c.4-.7,1.2-.9,1.9-.5s.9,1.2.5,1.9l-3.3,5.7c-.2.5-.7.7-1.2.7Z"/><path class="cls-3" d="m53,111c-.2,0-.5-.1-.7-.2-.7-.4-.9-1.2-.5-1.9l3.3-5.7c.4-.7,1.2-.9,1.9-.5.7.4.9,1.2.5,1.9l-3.3,5.7c-.3.5-.8.7-1.2.7Z"/><path class="cls-3" d="m90.2,23.3h-.4c-.7-.2-1.2-1-1-1.7l1.7-6.3c.2-.7,1-1.2,1.7-1s1.2,1,1,1.7l-1.7,6.3c-.1.5-.6,1-1.3,1Z"/><path class="cls-3" d="m78.7,21.7c-.8,0-1.4-.6-1.4-1.4v-6.6c0-.8.6-1.4,1.4-1.4s1.4.6,1.4,1.4v6.6c-.1.8-.7,1.4-1.4,1.4Z"/><path class="cls-3" d="m67.1,23.3c-.6,0-1.2-.4-1.3-1l-1.7-6.3c-.2-.7.2-1.5,1-1.7.7-.2,1.5.2,1.7,1l1.7,6.3c.2.7-.2,1.5-1,1.7-.2-.1-.3,0-.4,0Z"/><path class="cls-3" d="m104.3,111c-.5,0-.9-.2-1.2-.7l-3.3-5.7c-.4-.7-.2-1.5.5-1.9s1.5-.2,1.9.5l3.3,5.7c.4.7.2,1.5-.5,1.9-.2.2-.4.2-.7.2Z"/><path class="cls-3" d="m56.2,27.7c-.5,0-.9-.2-1.2-.7l-3.3-5.7c-.4-.7-.2-1.5.5-1.9s1.5-.2,1.9.5l3.3,5.7c.4.7.2,1.5-.5,1.9-.2.2-.4.2-.7.2Z"/><path class="cls-3" d="m115,102.9c-.4,0-.7-.1-1-.4l-4.6-4.6c-.5-.5-.5-1.4,0-2,.5-.5,1.4-.5,2,0l4.6,4.6c.5.5.5,1.4,0,2-.3.2-.7.4-1,.4Z"/><path class="cls-3" d="m47,34.9c-.4,0-.7-.1-1-.4l-4.6-4.6c-.5-.5-.5-1.4,0-2,.5-.5,1.4-.5,2,0l4.6,4.6c.5.5.5,1.4,0,2-.3.2-.7.4-1,.4Z"/><path class="cls-3" d="m123.1,92.2c-.2,0-.5-.1-.7-.2l-5.7-3.3c-.7-.4-.9-1.2-.5-1.9.4-.7,1.2-.9,1.9-.5l5.7,3.3c.7.4.9,1.2.5,1.9-.2.5-.7.7-1.2.7Z"/><path class="cls-3" d="m39.8,44.1c-.2,0-.5-.1-.7-.2l-5.7-3.3c-.7-.4-.9-1.2-.5-1.9s1.2-.9,1.9-.5l5.7,3.3c.7.4.9,1.2.5,1.9-.2.5-.7.7-1.2.7Z"/><path class="cls-3" d="m35.4,54.9h-.4l-6.3-1.7c-.7-.2-1.2-1-1-1.7s1-1.2,1.7-1l6.3,1.7c.7.2,1.2,1,1,1.7-.2.6-.7,1-1.3,1Z"/><path class="cls-3" d="m128.3,79.8h-.4l-6.3-1.7c-.7-.2-1.2-1-1-1.7s1-1.2,1.7-1l6.3,1.7c.7.2,1.2,1,1,1.7-.2.6-.7,1-1.3,1Z"/><path class="cls-3" d="m108.7,65c0-17.7-15.4-31.9-33.5-29.9-13.7,1.5-24.8,12.5-26.4,26.2-1.2,9.8,2.4,18.8,8.6,25,5.5,5.5,8.4,13.2,8.4,21v3.5h25.6v-3.7c0-7.9,3.2-15.5,8.7-21.1,5.4-5.4,8.6-12.8,8.6-21Z"/><path class="cls-7" d="m93.8,113v18.7h-30.3v-18.7c0-1.2,1-2.2,2.2-2.2h25.8c1.3,0,2.3,1,2.3,2.2Z"/><polygon class="cls-7" points="86.9 137.7 70.4 137.7 63.5 131.8 93.8 131.8 86.9 137.7"/><path class="cls-6" d="m95,114.8c0,.7-.5,1.2-1.2,1.2h-30.3c-.7,0-1.2-.5-1.2-1.2s.5-1.2,1.2-1.2h30.4c.6,0,1.1.5,1.1,1.2Z"/><path class="cls-6" d="m95,121.5c0,.7-.5,1.2-1.2,1.2h-30.3c-.7,0-1.2-.5-1.2-1.2s.5-1.2,1.2-1.2h30.4c.6,0,1.1.5,1.1,1.2Z"/><path class="cls-6" d="m95,128.2c0,.7-.5,1.2-1.2,1.2h-30.3c-.7,0-1.2-.5-1.2-1.2s.5-1.2,1.2-1.2h30.4c.6,0,1.1.5,1.1,1.2Z"/><path class="cls-6" d="m86.9,137.7c0,1.3-.5,2.4-1.3,3.2s-2,1.3-3.2,1.3h-7.3c-2.5,0-4.6-2.1-4.6-4.6h16.4v.1Z"/><path class="cls-2" d="m101.3,64.5c0,11.1-8.1,20.3-18.7,22.1-2,.3-3.7-1.2-3.7-3.2v-3.5c0-1.8,1.2-3.6,3-4,1.9-.5,3.8-1.5,5.3-3,4.6-4.6,4.6-12,0-16.6-1.5-1.5-3.4-2.5-5.3-3.1-1.8-.5-3-2.2-3-4v-3.5c0-2,1.8-3.6,3.7-3.2,10.6,1.7,18.7,10.9,18.7,22Z"/><path class="cls-2" d="m56,64.5c0,11.1,8.1,20.3,18.7,22.1,2,.3,3.7-1.2,3.7-3.2v-3.5c0-1.8-1.2-3.6-3-4-1.9-.5-3.8-1.5-5.3-3-4.6-4.6-4.6-12,0-16.6,1.5-1.5,3.4-2.5,5.3-3.1,1.8-.5,3-2.2,3-4v-3.5c0-2-1.8-3.6-3.7-3.2-10.6,1.7-18.7,10.9-18.7,22Z"/><path class="cls-3" d="m86.9,56.2c4.6,4.6,4.6,12,0,16.6s-12,4.6-16.6,0-4.6-12,0-16.6c4.6-4.5,12.1-4.5,16.6,0Z"/><path class="cls-5" d="m86.1,71.9c-1.1,1.1-2.5,2-3.9,2.5l-3.5-9.8,7.4,7.3Z"/><path class="cls-4" d="m82.2,74.4c-3.7,1.3-8,.5-10.9-2.5-4.1-4.1-4.1-10.7,0-14.8l7.4,7.4,3.5,9.9Z"/><path class="cls-6" d="m89.1,64.5c0,2.7-1,5.4-3.1,7.4l-7.4-7.4h10.5Z"/><path class="cls-1" d="m89.1,64.5h-10.5l7.4-7.4c2.1,2.1,3.1,4.7,3.1,7.4Z"/><path class="cls-7" d="m86.1,57.1l-7.4,7.4-7.4-7.4c4-4.1,10.7-4.1,14.8,0Z"/><circle class="cls-3" cx="78.7" cy="64.5" r="5.2"/></g></g></svg>