<?xml version="1.0" encoding="UTF-8"?><svg id="_圖層_2" xmlns="http://www.w3.org/2000/svg" viewBox="0 0 331.2 331.2"><defs><style>.cls-1{opacity:.1;}.cls-2{opacity:.12;}.cls-3{fill:#f77c5b;}.cls-4{fill:#edf3f3;}.cls-5{fill:#ffae3c;}.cls-6{fill:#85f8ff;}.cls-7{fill:#243239;}.cls-8{fill:#543c66;}.cls-9{fill:#503d2e;}</style></defs><g id="_圖層_1-2"><g id="_圖層_2-2"><circle class="cls-6" cx="165.6" cy="165.6" r="165.6"/><ellipse class="cls-3" cx="160.93" cy="168.32" rx="40.4" ry="141.1" transform="translate(-71.88 163.1) rotate(-45)"/><ellipse class="cls-8" cx="160.94" cy="168.32" rx="21" ry="51.7" transform="translate(-71.88 163.1) rotate(-45)"/><path class="cls-4" d="m189.4,210.3c-11.8,0-29.2-9.4-45.1-25.3-21.5-21.5-31.1-45.8-21.7-55.1,9.4-9.4,33.6.2,55.1,21.7h0c21.5,21.5,31.1,45.8,21.7,55.1-2.5,2.4-5.9,3.6-10,3.6Zm-56.8-78.8c-2.8,0-4.9.7-6.3,2.1-6.1,6.1,1.3,27.2,21.7,47.7,20.5,20.5,41.6,27.9,47.7,21.7,6.1-6.1-1.3-27.2-21.7-47.7h0c-15.9-15.8-32.1-23.8-41.4-23.8Z"/><g class="cls-2"><path class="cls-7" d="m189.5,139.7c55.1,55.1,87,112.6,71.2,128.3L61.2,68.5c15.7-15.8,73.2,16.1,128.3,71.2Z"/></g><rect class="cls-8" x="89.56" y="164.29" width="142.2" height="8.4" transform="translate(-72.08 162.95) rotate(-45)"/><path class="cls-5" d="m117.2,202.1l9.9,9.9c1.5,1.5,2.1,3.7,1.5,5.8l-4,13.8c-1,3.5-2.9,6.8-5.6,9.4l-16.3,16.3c-2.3,2.3-6,2.3-8.3,0l-22.5-22.5c-2.3-2.3-2.3-6,0-8.3l16.3-16.3c2.6-2.6,5.8-4.5,9.4-5.6l13.8-4c2-.6,4.3,0,5.8,1.5Z"/><path class="cls-5" d="m226.9,79.9l22.5,22.5c2.3,2.3,2.3,6,0,8.3l-16.3,16.3c-2.6,2.6-5.8,4.5-9.4,5.6l-13.8,4c-2.1.6-4.3,0-5.8-1.5l-9.9-9.9c-1.5-1.5-2.1-3.7-1.5-5.8l4-13.8c1-3.5,3-6.8,5.6-9.4l16.3-16.3c2.3-2.3,6-2.3,8.3,0Z"/><g class="cls-1"><path class="cls-9" d="m83.2,246l38.9-38.9,5,5c1.5,1.5,2.1,3.7,1.5,5.8l-4,13.8c-1,3.5-2.9,6.8-5.6,9.4l-16.3,16.3c-2.3,2.3-6,2.3-8.3,0l-11.2-11.4Z"/></g><g class="cls-1"><path class="cls-9" d="m238.1,91.1l11.2,11.2c2.3,2.3,2.3,6,0,8.3l-16.3,16.3c-2.6,2.6-5.8,4.5-9.4,5.6l-13.8,4c-2.1.6-4.3,0-5.8-1.5l-5-5,39.1-38.9Z"/></g></g></g></svg>