<?xml version="1.0" encoding="UTF-8"?><svg id="_圖層_2" xmlns="http://www.w3.org/2000/svg" viewBox="0 0 143.8 143.8"><defs><style>.cls-1{fill:#edf3f3;}.cls-2{fill:#b4dbff;}.cls-3{fill:#543c66;}.cls-4{fill:#6d5087;}</style></defs><g id="Layer_2"><circle class="cls-2" cx="71.9" cy="71.9" r="71.9"/><rect class="cls-4" x="65.4" y="42" width="6.4" height="37.1"/><circle class="cls-3" cx="63.8" cy="80.2" r="7.9"/><rect class="cls-4" x="91.2" y="38.6" width="6.4" height="37.1"/><circle class="cls-3" cx="89.6" cy="76.8" r="7.9"/><polygon class="cls-4" points="97.5 50.1 65.4 55.2 65.4 42 97.5 36.9 97.5 50.1"/><polygon class="cls-4" points="42.8 54.4 42.8 89.7 36.5 89.7 36.5 52.6 38.8 52.6 42.8 54.4"/><circle class="cls-3" cx="34.87" cy="90.84" r="7.9"/><polygon class="cls-4" points="53 58.9 50.7 64.2 42.8 60.7 36.5 58 36.5 57.9 36.5 57.9 38.8 52.6 38.8 52.6 38.8 52.6 42.8 54.4 53 58.9"/><polygon class="cls-4" points="115.7 66.8 115.7 102.1 109.4 102.1 109.4 65 111.7 65 115.7 66.8"/><circle class="cls-3" cx="107.8" cy="103.2" r="7.9"/><polygon class="cls-4" points="125.9 71.3 123.6 76.6 115.7 73.1 109.4 70.4 109.4 70.4 109.4 70.3 111.7 65 111.7 65 111.7 65 115.7 66.8 125.9 71.3"/><path class="cls-1" d="m82.1,100.1c0,2-1.6,3.6-3.6,3.6s-3.6-1.6-3.6-3.6,1.6-3.6,3.6-3.6c2,.1,3.6,1.7,3.6,3.6Z"/><path class="cls-1" d="m120.5,52.6c0,2-1.6,3.6-3.6,3.6s-3.6-1.6-3.6-3.6,1.6-3.6,3.6-3.6c2,.1,3.6,1.7,3.6,3.6Z"/><circle class="cls-1" cx="18.7" cy="68.9" r="3.6"/><circle class="cls-1" cx="50.6" cy="44.3" r="3.6"/></g></svg>