<?xml version="1.0" encoding="UTF-8"?><svg id="_圖層_2" xmlns="http://www.w3.org/2000/svg" xmlns:xlink="http://www.w3.org/1999/xlink" viewBox="0 0 145.22 145.22"><defs><style>.cls-1{fill:none;}.cls-2{clip-path:url(#clippath);}.cls-3{fill:#edf3f3;}.cls-4{fill:#92aa2d;}.cls-5{fill:#b9dd39;}.cls-6{fill:#705441;}.cls-7{fill:#503d2e;}.cls-8{clip-path:url(#clippath-1);}.cls-9{clip-path:url(#clippath-2);}</style><clipPath id="clippath"><circle class="cls-1" cx="72.61" cy="72.61" r="72.6"/></clipPath><clipPath id="clippath-1"><rect class="cls-1" x="12.67" y="92.07" width="119.9" height="17.8"/></clipPath><clipPath id="clippath-2"><rect class="cls-1" x="12.67" y="92.07" width="119.9" height="17.8"/></clipPath></defs><g id="Layer_2"><circle class="cls-3" cx="72.61" cy="72.61" r="72.6"/><g class="cls-2"><path class="cls-4" d="m100.27,65.87c0-21.2-12.4-53.1-27.6-53.1s-27.6,31.9-27.6,53.1,12.4,23.6,27.6,23.6,27.6-2.5,27.6-23.6Z"/><path class="cls-7" d="m73.77,112.17c-1.2,0-2.2-1-2.2-2.2V44.07c0-1.2,1-2.2,2.2-2.2s2.2,1,2.2,2.2v65.8c0,1.3-1,2.3-2.2,2.3Z"/><path class="cls-7" d="m73.77,60.57c-.6,0-1.3-.3-1.7-.8-.8-.9-.7-2.3.3-3.1l7.3-6.1c.9-.8,2.3-.7,3.1.3.8.9.7,2.3-.3,3.1l-7.3,6.1c-.4.3-.9.5-1.4.5Z"/><path class="cls-7" d="m73.77,75.47c-.4,0-.8-.1-1.2-.4l-14.6-9.6c-1-.7-1.3-2-.6-3.1.7-1,2-1.3,3.1-.6l14.6,9.6c1,.7,1.3,2,.6,3.1-.5.6-1.2,1-1.9,1Z"/><path class="cls-7" d="m73.77,85.07c-.7,0-1.3-.3-1.8-.9-.7-1-.5-2.4.4-3.1l8.2-6.1c1-.7,2.4-.5,3.1.4.7,1,.5,2.4-.4,3.1l-8.2,6.1c-.4.4-.8.5-1.3.5Z"/><circle class="cls-5" cx="29.06" cy="73.54" r="17.1"/><circle class="cls-5" cx="46.17" cy="73.56" r="17.1"/><circle class="cls-5" cx="37.57" cy="50.18" r="17.1"/><path class="cls-7" d="m37.57,106.57c-1.2,0-2.2-1-2.2-2.2v-54.8c0-1.2,1-2.2,2.2-2.2s2.2,1,2.2,2.2v54.8c0,1.2-1,2.2-2.2,2.2Z"/><path class="cls-7" d="m37.57,64.67c-.6,0-1.3-.3-1.7-.8-.8-.9-.7-2.3.3-3.1l6.6-5.6c.9-.8,2.3-.7,3.1.3.8.9.7,2.3-.3,3.1l-6.6,5.6c-.4.4-.9.5-1.4.5Z"/><path class="cls-7" d="m37.57,78.17c-.4,0-.8-.1-1.2-.4l-13.3-8.7c-1-.7-1.3-2-.6-3.1.7-1,2-1.3,3.1-.6l13.3,8.7c1,.7,1.3,2,.6,3.1-.4.6-1.2,1-1.9,1Z"/><path class="cls-7" d="m37.57,86.87c-.7,0-1.3-.3-1.8-.9-.7-1-.5-2.4.4-3.1l7.4-5.6c1-.7,2.4-.5,3.1.4.7,1,.5,2.4-.4,3.1l-7.4,5.6c-.4.4-.8.5-1.3.5Z"/><path class="cls-7" d="m46.77,109.97h-18.3v-2.7c0-1.6,1.3-2.9,2.9-2.9h12.5c1.6,0,2.9,1.3,2.9,2.9v2.7Z"/><circle class="cls-5" cx="99.08" cy="73.59" r="17.1"/><circle class="cls-5" cx="116.17" cy="73.58" r="17.1" transform="translate(-14.54 30.88) rotate(-14.26)"/><circle class="cls-5" cx="107.67" cy="50.15" r="17.1"/><path class="cls-7" d="m107.67,106.57c-1.2,0-2.2-1-2.2-2.2v-54.8c0-1.2,1-2.2,2.2-2.2s2.2,1,2.2,2.2v54.8c0,1.2-1,2.2-2.2,2.2Z"/><path class="cls-7" d="m107.67,64.67c-.6,0-1.3-.3-1.7-.8-.8-.9-.7-2.3.3-3.1l6.6-5.6c.9-.8,2.3-.7,3.1.3.8.9.7,2.3-.3,3.1l-6.6,5.6c-.4.4-.9.5-1.4.5Z"/><path class="cls-7" d="m107.67,78.17c-.4,0-.8-.1-1.2-.4l-13.3-8.7c-1-.7-1.3-2-.6-3.1.7-1,2-1.3,3.1-.6l13.3,8.7c1,.7,1.3,2,.6,3.1-.5.6-1.2,1-1.9,1Z"/><path class="cls-7" d="m107.67,86.87c-.7,0-1.3-.3-1.8-.9-.7-1-.5-2.4.4-3.1l7.4-5.6c1-.7,2.4-.5,3.1.4.7,1,.5,2.4-.4,3.1l-7.4,5.6c-.4.4-.9.5-1.3.5Z"/><path class="cls-7" d="m116.77,109.97h-18.3v-2.7c0-1.6,1.3-2.9,2.9-2.9h12.6c1.6,0,2.9,1.3,2.9,2.9v2.7h-.1Z"/><g class="cls-8"><circle class="cls-5" cx="28.17" cy="110.96" r="9.5"/><circle class="cls-5" cx="38.68" cy="104.36" r="9.5"/><circle class="cls-5" cx="48.78" cy="109.96" r="9.5"/></g><g class="cls-9"><circle class="cls-5" cx="98.07" cy="110.96" r="9.5"/><circle class="cls-5" cx="108.58" cy="104.37" r="9.5"/><circle class="cls-5" cx="118.68" cy="109.97" r="9.5"/><path class="cls-5" d="m91.47,109.97c0-3.8-3.1-6.9-6.9-6.9s-6.9,3.1-6.9,6.9,3.1,6.9,6.9,6.9c3.8-.1,6.9-3.2,6.9-6.9Z"/></g><rect class="cls-6" x="-14.43" y="109.97" width="174.2" height="46.5"/></g></g></svg>