<?xml version="1.0" encoding="UTF-8"?><svg id="_圖層_2" xmlns="http://www.w3.org/2000/svg" viewBox="0 0 157.4 157.4"><defs><style>.cls-1{fill:#edf3f3;}.cls-2{fill:#e3a72f;}.cls-3{fill:#fdda92;}.cls-4{fill:#cdd1d1;}.cls-5{fill:#243239;}.cls-6{fill:#058789;}</style></defs><g id="_圖層_1-2"><g id="Layer_2"><circle class="cls-3" cx="78.7" cy="78.7" r="78.7"/><path class="cls-6" d="m114.6,128.6H42.6V26.7h72c3.2,0,5.8,2.6,5.8,5.8v90.2c0,3.3-2.6,5.9-5.8,5.9Z"/><rect class="cls-2" x="54.2" y="26.7" width="8.6" height="101.9"/><path class="cls-5" d="m37,115.5c0,3,2.5,5.5,5.5,5.5,1.7,0,3.2-.7,4.2-1.9.7-.8,1.2-1.9,1.3-3-.3-.4-.8-.6-1.4-.6-.2,0-.4,0-.6.1,0,.9-.4,1.8-1.1,2.4-.6.6-1.5,1-2.5,1-2,0-3.5-1.6-3.5-3.5s1.6-3.5,3.5-3.5v-2c-2.9,0-5.4,2.5-5.4,5.5Z"/><path class="cls-5" d="m37,97c0,3,2.5,5.5,5.5,5.5,1.7,0,3.2-.7,4.2-1.9.7-.8,1.2-1.9,1.3-3-.3-.4-.8-.6-1.4-.6-.2,0-.4,0-.6.1,0,.9-.4,1.8-1.1,2.4-.6.6-1.5,1-2.5,1-2,0-3.5-1.6-3.5-3.5,0-2,1.6-3.5,3.5-3.5v-2c-2.9,0-5.4,2.5-5.4,5.5Z"/><path class="cls-5" d="m37,78.6c0,3,2.5,5.5,5.5,5.5,1.7,0,3.2-.7,4.2-1.9.7-.8,1.2-1.9,1.3-3-.3-.4-.8-.6-1.4-.6-.2,0-.4,0-.6.1,0,.9-.4,1.8-1.1,2.4-.6.6-1.5,1-2.5,1-2,0-3.5-1.6-3.5-3.5,0-2,1.6-3.5,3.5-3.5v-2c-2.9-.1-5.4,2.4-5.4,5.5Z"/><path class="cls-5" d="m37,60.1c0,3,2.5,5.5,5.5,5.5,1.7,0,3.2-.7,4.2-1.9.7-.8,1.2-1.9,1.3-3-.3-.4-.8-.6-1.4-.6-.2,0-.4,0-.6.1,0,.9-.4,1.8-1.1,2.4-.6.6-1.5,1-2.5,1-2,0-3.5-1.6-3.5-3.5,0-2,1.6-3.5,3.5-3.5v-2c-2.9,0-5.4,2.4-5.4,5.5Z"/><path class="cls-5" d="m37,41.6c0,3,2.5,5.5,5.5,5.5,1.7,0,3.2-.7,4.2-1.9.7-.8,1.2-1.9,1.3-3-.3-.4-.8-.6-1.4-.6-.2,0-.4,0-.6.1,0,.9-.4,1.8-1.1,2.4-.6.6-1.5,1-2.5,1-2,0-3.5-1.6-3.5-3.5,0-2,1.6-3.5,3.5-3.5v-2c-2.9,0-5.4,2.5-5.4,5.5Z"/><path class="cls-1" d="m109.4,74.7h-34.2c-.9,0-1.6-.7-1.6-1.6v-19.1c0-.9.7-1.6,1.6-1.6h34.2c.9,0,1.6.7,1.6,1.6v19.1c0,.9-.7,1.6-1.6,1.6Z"/><rect class="cls-4" x="89.1" y="57.3" width="18.4" height="2.5"/><rect class="cls-4" x="89.1" y="62.3" width="18.4" height="2.5"/><rect class="cls-4" x="89.1" y="67.3" width="18.4" height="2.5"/></g></g></svg>