<?xml version="1.0" encoding="UTF-8"?><svg id="_圖層_2" xmlns="http://www.w3.org/2000/svg" viewBox="0 0 157.4 157.4"><defs><style>.cls-1{fill:#f77c5b;}.cls-2{fill:#edf3f3;}.cls-3{fill:#e3a72f;}.cls-4{fill:#7bd1df;}.cls-5{fill:#243239;}.cls-6{fill:#058789;}</style></defs><g id="_圖層_1-2"><g id="_圖層_3"><circle class="cls-4" cx="78.7" cy="78.7" r="78.7"/><path class="cls-2" d="m70.5,126.9c-22.1,0-40-17.9-40-40v-16.4c0-22.1,17.9-40,40-40h16.4c22.1,0,40,17.9,40,40v18.5c0,5.8-4.8,10.6-10.6,10.6h-7.6c-5,0-9.1,4.1-9.1,9.1v7.6c0,5.8-4.8,10.6-10.6,10.6h-18.5Z"/><path class="cls-6" d="m86.9,33c20.7,0,37.5,16.8,37.5,37.5v18.5c0,4.5-3.6,8.1-8.1,8.1h-7.6c-6.4,0-11.5,5.2-11.5,11.5v7.6c0,4.5-3.6,8.1-8.1,8.1h-18.6c-20.7,0-37.5-16.8-37.5-37.5v-16.3c0-20.7,16.8-37.5,37.5-37.5h16.4m0-4.9h-16.4c-23.4,0-42.5,19.1-42.5,42.5v16.4c0,23.4,19.1,42.5,42.5,42.5h18.5c7.2,0,13.1-5.9,13.1-13.1v-7.6c0-3.6,3-6.6,6.6-6.6h7.6c7.2,0,13.1-5.9,13.1-13.1v-18.6c0-23.4-19.1-42.4-42.5-42.4h0Z"/><path class="cls-5" d="m99,77.9c0,3.4,2.8,6.2,6.2,6.2s6.2-2.8,6.2-6.2-2.8-6.2-6.2-6.2-6.2,2.7-6.2,6.2Z"/><circle class="cls-4" cx="95.8" cy="54.7" r="10.1"/><circle class="cls-6" cx="68.9" cy="54.7" r="10.1"/><circle class="cls-3" cx="50.9" cy="77.9" r="10.1"/><circle class="cls-1" cx="70.7" cy="100.6" r="13.8"/></g></g></svg>