<?xml version="1.0" encoding="UTF-8"?><svg id="_圖層_2" xmlns="http://www.w3.org/2000/svg" viewBox="0 0 331.2 331.2"><defs><style>.cls-1{opacity:.1;}.cls-2{fill:#f77c5b;}.cls-3{fill:#edf3f3;}.cls-4{fill:#e3a72f;}.cls-5{fill:#f0d355;}.cls-6{fill:#fdda92;}.cls-7{fill:#d54b1a;}.cls-8{fill:#503d2e;}</style></defs><g id="_圖層_1-2"><g id="_圖層_2-2"><circle class="cls-5" cx="165.6" cy="165.6" r="165.6"/><rect class="cls-2" x="117.9" y="44.2" width="95.5" height="52.4"/><path class="cls-7" d="m164.4,154.3l-48.8,20.6-32.7-77.6c-2.1-4.9-1.2-10.5,2.2-14.5l32.9-38.5,46.4,110Z"/><path class="cls-7" d="m248.4,97.3l-24.6,58.3-7.3,17.2-.9,2-2.3-1-6.1-2.6-40.4-17,.9-2.2,1.3-3.2,1.3-3.2,8-19,12.7-30,22.1-52.4.1.2,32.7,38.4c3.7,4,4.6,9.6,2.5,14.5Z"/><polygon class="cls-4" points="245.8 219.4 235.1 229.3 238 243.6 224.7 249.7 223 264.2 208.6 265.9 202.5 279.1 188.2 276.3 178.3 287 165.6 279.8 152.9 287 143 276.3 128.7 279.1 122.6 265.9 108.2 264.2 106.5 249.7 93.2 243.6 96.1 229.3 85.4 219.4 92.5 206.7 85.4 194 96.1 184.1 93.2 169.9 106.5 163.8 107.4 155.6 107.4 155.6 108.2 149.3 122.6 147.6 128.7 134.4 143 137.2 152.7 126.7 152.9 126.5 165.6 133.6 178.3 126.5 178.5 126.7 188.2 137.2 202.5 134.4 208.6 147.6 223 149.3 223.8 155.6 224.7 163.8 238 169.9 235.1 184.1 245.8 194 238.7 206.7 245.8 219.4"/><circle class="cls-6" cx="165.56" cy="206.72" r="57.9"/><path class="cls-3" d="m216.5,172.8c-10.1-15.2-26.9-25.6-46.1-27.1-1.6-.1-3.2-.2-4.9-.2-1.6,0-3.2.1-4.8.2-19.2,1.5-35.9,11.9-46.1,27.1-6.5,9.7-10.3,21.4-10.3,33.9,0,33.7,27.4,61.2,61.2,61.2s61.2-27.4,61.2-61.2c.1-12.5-3.7-24.2-10.2-33.9Zm-50.9,88.6c-30.1,0-54.7-24.5-54.7-54.7,0-13.5,4.9-25.8,13-35.4,9.6-11.3,23.7-18.6,39.5-19.2h4.4c15.8.6,29.9,8,39.5,19.2,8.1,9.6,13,21.9,13,35.4,0,30.2-24.5,54.7-54.7,54.7Zm2.3-112.5h-2.3v3.2h2.2l1.3-3.2h-1.2Z"/><polygon class="cls-4" points="165.6 235.9 141 244.6 141.7 218.5 125.8 197.8 150.8 190.4 165.6 168.8 180.4 190.4 205.4 197.8 189.5 218.5 190.2 244.6 165.6 235.9"/><g class="cls-1"><path class="cls-8" d="m248.4,97.3l-24.6,58.3,1,8.1,13.2,6.1-2.9,14.3,10.7,9.9-7.1,12.7,7.1,12.7-10.7,9.9,2.9,14.3-13.2,6.1-1.7,14.5-14.5,1.7-6.1,13.2-14.3-2.8-9.9,10.7-12.7-7.1v-146.3l12.7-7.1.2.2,12.7-30h-25.6v-52.5h47.8v.2l32.7,38.4c3.5,4,4.4,9.6,2.3,14.5Z"/></g></g></g></svg>