<?xml version="1.0" encoding="UTF-8"?><svg id="_圖層_2" xmlns="http://www.w3.org/2000/svg" viewBox="0 0 157.4 157.4"><defs><style>.cls-1{fill:#f77c5b;}.cls-2{fill:#edf3f3;}.cls-3{fill:#fdda92;}.cls-4{fill:#058789;}</style></defs><g id="_圖層_1-2"><g id="Layer_2"><circle class="cls-4" cx="78.7" cy="78.7" r="78.7"/><path class="cls-3" d="m97,71.3c-5.1-.2-9.3,3.8-9.3,8.9,0,3.3,1.8,6.3,4.6,7.8.6.3.9.9.9,1.5h0c0,.5-.4.9-.9.9h-14.9v38.3h18.8c10.8,0,19.6-8.8,19.6-19.6v-18.8h-14.9c-.5,0-.9-.4-.9-.9h0c0-.6.4-1.2.9-1.5,2.8-1.6,4.7-4.6,4.6-8-.2-4.6-3.9-8.4-8.5-8.6Z"/><path class="cls-1" d="m96.6,110.1c.2-5.1-3.8-9.3-8.9-9.3-3.3,0-6.3,1.8-7.8,4.6-.3.6-.9.9-1.5.9h0c-.5,0-.9-.4-.9-.9v-14.9h-38.4v18.8c0,10.8,8.8,19.6,19.6,19.6h18.8v-14.9c0-.5.4-.9.9-.9h0c.6,0,1.2.4,1.5.9,1.6,2.8,4.6,4.7,8,4.6,4.6-.2,8.5-4,8.7-8.5Z"/><path class="cls-2" d="m58.3,70.8c.2-4.6,4-8.3,8.6-8.5,3.5-.1,6.5,1.8,8,4.6.3.6.9.9,1.5.9h0c.5,0,.9-.4.9-.9v-14.8h-18.6c-10.9,0-19.6,8.8-19.6,19.6v18.8h14.9c.5,0,.9.4.9.9h0c0,.6-.4,1.2-.9,1.5-2.8,1.6-4.7,4.6-4.6,8,.1,4.6,3.9,8.4,8.5,8.6,5.1.2,9.3-3.8,9.3-8.9,0-3.3-1.8-6.3-4.6-7.8-.6-.3-.9-.9-.9-1.5h0c0-.5.4-.9.9-.9h14.9v-14.8c0-.5-.4-.9-.9-.9h0c-.7,0-1.2.4-1.5.9-1.5,2.7-4.4,4.6-7.8,4.6-5.2,0-9.3-4.2-9-9.4Z"/><path class="cls-1" d="m119.9,47.5c4.6.2,8.3,4,8.5,8.6.1,3.5-1.8,6.5-4.6,8-.6.3-.9.9-.9,1.5h0c0,.5.4.9.9.9h14.9v-18.6c0-10.8-8.8-19.6-19.6-19.6h-18.8v14.9c0,.5-.4.9-.9.9h0c-.6,0-1.2-.4-1.5-.9-1.6-2.8-4.6-4.7-8-4.6-4.6.1-8.4,3.9-8.6,8.5-.2,5.1,3.8,9.3,8.9,9.3,3.3,0,6.3-1.8,7.8-4.6.3-.6.9-.9,1.5-.9h0c.5,0,.9.4.9.9v14.9h14.7c.5,0,.9-.4.9-.9h0c0-.7-.4-1.2-.9-1.5-2.7-1.5-4.6-4.4-4.6-7.8.1-5.2,4.3-9.3,9.4-9Z"/></g></g></svg>