<?xml version="1.0" encoding="UTF-8"?><svg id="_圖層_2" xmlns="http://www.w3.org/2000/svg" viewBox="0 0 145.2 145.2"><defs><style>.cls-1{opacity:.1;}.cls-2{fill:#f77c5b;}.cls-3{fill:#edf3f3;}.cls-4{fill:#f0d355;}.cls-5{fill:#85f8ff;}.cls-6{fill:#d85149;}.cls-7{fill:#43a8ed;}.cls-8{fill:#503d2e;}</style></defs><g id="Layer_2"><circle class="cls-5" cx="72.6" cy="72.6" r="72.6"/><path class="cls-7" d="m113.3,26.8c-32.8,0-60.5,21.4-70,51.1-2.3,7.1-3.5,14.6-3.5,22.5h46.2c0-9.4,4.7-17.7,12-22.6,4.4-3,9.7-4.7,15.4-4.7h0l-.1-46.3h0Z"/><path class="cls-2" d="m113.3,38.3c-18.4,0-34.8,8-46.2,20.6-9.8,11-15.8,25.5-15.8,41.4h34.6c0-9.4,4.7-17.7,12-22.6,4.4-3,9.7-4.7,15.4-4.7h0v-34.7h0Z"/><path class="cls-4" d="m113.3,49.9c-14,0-26.6,5.7-35.8,14.9s-14.7,21.7-14.7,35.6h23.1c0-9.4,4.7-17.7,12-22.6,4.4-3,9.7-4.7,15.4-4.7h0v-23.2h0Z"/><path class="cls-6" d="m113.3,61.4c-9.3,0-17.8,3.3-24.5,8.7-8.8,7.1-14.4,18-14.4,30.2h11.5c0-9.4,4.7-17.7,12-22.6,4.4-3,9.7-4.7,15.4-4.7h0v-11.6h0Z"/><g class="cls-1"><path class="cls-8" d="m97.9,77.7c-7.2,4.9-12,13.2-12,22.6h-46.1c0-7.8,1.2-15.4,3.5-22.5,2,.3,4,1,5.7,2-.4-1.4-.6-2.9-.6-4.5,0-9.2,7.4-16.6,16.6-16.6.8,0,1.5.1,2.2.2,4.2.6,7.9,2.7,10.4,5.8,1.7,2,2.9,4.4,3.5,7,1.3-1,2.9-1.7,4.6-1.9,1.1-.1,2.2,0,3.2.3,3.4.9,6,3.8,6.3,7.5v.3c.5-.1.9-.1,1.4-.2.4,0,.9,0,1.3,0Z"/></g><path class="cls-3" d="m99.5,117.4c-.5,0-1,.1-1.5.1h-56.9c-7.8,0-14.5-5.9-15.3-13.8-.8-8.4,5.4-15.9,13.8-16.7,3.4-.3,6.6.5,9.4,2.1-.4-1.4-.6-2.9-.6-4.5,0-9.2,7.4-16.6,16.6-16.6,7.9,0,14.5,5.5,16.1,12.9,1.3-1,2.9-1.7,4.6-1.9,4.8-.5,9,3,9.5,7.8v.3c.5-.1.9-.1,1.4-.2,8.4-.8,15.9,5.3,16.7,13.8.8,8.5-5.4,15.9-13.8,16.7Z"/></g></svg>