<?xml version="1.0" encoding="UTF-8"?><svg id="_圖層_2" xmlns="http://www.w3.org/2000/svg" viewBox="0 0 157.43 157.43"><defs><style>.cls-1{fill:#edf3f3;}.cls-2{fill:#fff;}.cls-3{fill:#d54b1a;}.cls-4{fill:#43cedd;}</style></defs><g id="_圖層_1-2"><g id="Layer_2"><circle class="cls-4" cx="78.71" cy="78.71" r="78.7"/><path class="cls-2" d="m87.61,76.03v-30.7h1.9c2.2,0,4-1.8,4-4s-1.8-4-4-4h-21.5c-2.2,0-4,1.8-4,4s1.8,4,4,4h1.9v30.7c-14.5,3.9-25.2,17.1-25.2,32.8,0,18.8,15.2,34,34,34s34-15.2,34-34c.1-15.7-10.6-28.9-25.1-32.8Z"/><path class="cls-3" d="m105.31,112.13c-1.7,13.1-12.9,23.2-26.5,23.2-14.8,0-26.8-12-26.8-26.8,0-.6,0-1.2.1-1.8,5.1-2,13.6-3,26.7,1.8,12.6,4.6,21.1,4.7,26.5,3.6Z"/><path class="cls-3" d="m86.71,91.03c0,1.8-1.5,3.3-3.3,3.3s-3.3-1.5-3.3-3.3,1.5-3.3,3.3-3.3c1.8-.1,3.3,1.4,3.3,3.3Z"/><path class="cls-3" d="m69.21,98.23c0,.6-.5,1-1,1-.6,0-1-.5-1-1,0-.6.5-1,1-1,.6,0,1,.4,1,1Z"/><circle class="cls-3" cx="76.01" cy="82.53" r="2.6"/><path class="cls-1" d="m67.21,116.53c0,1.4-1.1,2.5-2.5,2.5s-2.5-1.1-2.5-2.5,1.1-2.5,2.5-2.5c1.4.1,2.5,1.2,2.5,2.5Z"/><circle class="cls-1" cx="78.01" cy="126.33" r=".8"/><path class="cls-1" d="m91.31,121.83c0,2.1-1.7,3.8-3.8,3.8s-3.8-1.7-3.8-3.8,1.7-3.8,3.8-3.8,3.8,1.7,3.8,3.8Z"/><path class="cls-1" d="m110.11,76.63c0,.6-.5,1.1-1.1,1.1s-1.1-.5-1.1-1.1.5-1.1,1.1-1.1,1.1.5,1.1,1.1Z"/><path class="cls-1" d="m58.41,61.23c0,1.8-1.5,3.3-3.3,3.3s-3.3-1.5-3.3-3.3,1.5-3.3,3.3-3.3c1.8-.1,3.3,1.4,3.3,3.3Z"/><path class="cls-1" d="m102.41,54.93c0,2.3-1.8,4.1-4.1,4.1s-4.1-1.8-4.1-4.1,1.8-4.1,4.1-4.1,4.1,1.9,4.1,4.1Z"/><path class="cls-1" d="m81.11,29.93c0,.6-.5,1.1-1.1,1.1s-1.1-.5-1.1-1.1.5-1.1,1.1-1.1c.6-.1,1.1.5,1.1,1.1Z"/><circle class="cls-1" cx="68.21" cy="20.03" r="5.3"/><circle class="cls-1" cx="47.71" cy="77.83" r="1.7"/><path class="cls-1" d="m96.51,25.33c0,.9-.8,1.7-1.7,1.7s-1.7-.8-1.7-1.7.8-1.7,1.7-1.7c1-.1,1.7.7,1.7,1.7Z"/></g></g></svg>