<?xml version="1.0" encoding="UTF-8"?><svg id="_圖層_2" xmlns="http://www.w3.org/2000/svg" viewBox="0 0 331.2 331.2"><defs><style>.cls-1{fill:#f77c5b;}.cls-2{fill:#edf3f3;}.cls-3{fill:#e3a72f;}.cls-4{fill:#cdd1d1;}.cls-5{fill:#231f20;}.cls-6{fill:#243239;}.cls-7{fill:#543c66;}</style></defs><g id="_圖層_1-2"><g id="_圖層_2-2"><circle class="cls-2" cx="165.6" cy="165.6" r="165.6"/><path class="cls-7" d="m151.82,227.29h-15c-12.1-12.2-46.3-42.4-81.9-33.2v-40.4c49.8-13.6,96.9,73.6,96.9,73.6Z"/><path class="cls-5" d="m196.92,125.79l-.2-.1-.1-.1.3.2Z"/><path class="cls-1" d="m136.92,227.29h-10c-2.4,0-4.3,2-4.3,4.4,0,1.5-.6,2.8-1.6,3.8s-2.4,1.6-3.9,1.6h-46c-.8,0-1.7-.1-2.5-.2-.3,0-.5-.1-.8-.1-.3-.1-.5-.1-.8-.2-.2-.1-.4-.1-.6-.2-.1,0-.2-.1-.3-.1-.2-.1-.4-.1-.6-.2s-.5-.2-.7-.3c-.3-.1-.5-.2-.8-.4-.2-.1-.5-.2-.7-.4-.5-.2-.9-.5-1.3-.8-.3-.2-.6-.4-.8-.6-.1,0-.1-.1-.2-.1-.2-.1-.4-.3-.5-.5-.2-.2-.4-.3-.5-.5-.2-.2-.4-.3-.5-.5-.3-.3-.6-.6-.9-.9-.2-.3-.4-.5-.6-.8,0-.1-.1-.1-.1-.2-.2-.3-.4-.6-.6-.9-.1-.2-.3-.5-.4-.8l-.3-.6c-.1-.2-.2-.5-.3-.7-.2-.4-.3-.9-.5-1.3-.2-.6-.4-1.3-.5-2-.1-.4-.1-.8-.2-1.3-.1-.6-.1-1.2-.1-1.8v-26.9c35.6-8.9,69.8,21.3,81.9,33.5Z"/><path class="cls-7" d="m70.02,112.19c-2.1,7.7-6.3,17.7-15,27.1v-43.9c0-1.4,1.1-2.5,2.5-2.5h0c1.1,0,2.1.7,2.4,1.8,1.4,4.4,3.4,8.4,5.9,12.2.5.7.9,1.4,1.4,2.1.9,1,1.8,2.2,2.8,3.2Z"/><path class="cls-1" d="m291.82,196.29v23.9c0,.3,0,.7-.1,1,0,.3-.1.7-.1,1v.1c-.1.3-.1.7-.2,1h0c-.1.3-.2.7-.3,1-.1.3-.2.6-.3.9,0,.1-.1.2-.1.2-.1.3-.2.6-.4.9-.1.3-.3.6-.5,1-.6,1.1-1.2,2.1-2,3.1-.3.3-.5.6-.8.9l-.9.9c-.3.3-.6.6-.9.8h0c-.3.2-.6.5-.9.7,0,0-.1,0-.1.1-.3.2-.6.4-.9.6-.1.1-.2.1-.3.2-.2.1-.4.2-.6.3-.1,0-.1.1-.2.1-.2.1-.4.2-.6.3-.3.1-.5.2-.8.4-.3.1-.5.2-.8.3-.3.1-.5.2-.8.3-.2.1-.3.1-.5.1-.4.1-.7.2-1.1.3-.2,0-.4.1-.6.1-1.1.2-2.2.3-3.3.3h-105.2c-3,0-5.5-2.4-5.5-5.5,0-1.2-.5-2.3-1.3-3.1s-1.9-1.3-3.1-1.3h-6.8s-47.1-87.3-96.9-73.6v-14.5c8.7-9.3,13-19.4,15-27.1,9,10.1,22.1,16.5,36.7,16.5,3,0,5.9-.3,8.8-.8,9.1-1.6,17.4-5.8,24-11.8h0c.7-.6,1.3-1.2,2-1.9h0c12.5-9.5,40.5,3.5,54.3,10.9.3.2.5.3.7.4,0,0,.1,0,.1.1.1,0,.1.1.1.1l.2.1.1.1c.1,0,.1.1.2.1l.2.1h.1l6.1,3.4c.1,0,.1.1.1.1l65.5,37,7.9,4.5c9.2,5.3,14.8,14.9,14.8,25.4Z"/><path class="cls-7" d="m195.82,125.09c-13.7-7.4-41.8-20.4-54.3-10.9.6-.5,1.1-1.1,1.6-1.7,3.3-3.7,8-5.8,12.9-5.8,1.6,0,3.1-.7,4.2-1.7,1.1-1.1,1.7-2.5,1.7-4.2v-22.6c0-2.4,1.9-4.3,4.3-4.3,1.9,0,3.7.7,5.1,2,1.3,1.2,2.2,3,2.4,4.9,2,28.9,16.9,41,22.1,44.3Z"/><path class="cls-3" d="m291.82,196.29v8.6c-21.1-1-39.8-3.1-56.4-6.2-73.4-13.7-105.7-45.5-120-70.7,9.1-1.6,17.4-5.8,24-11.8h0c.7-.6,1.3-1.2,2-1.9h0c12.5-9.5,40.5,3.5,54.3,10.9.3.2.5.3.7.4,0,0,.1,0,.1.1.1,0,.1.1.1.1l.2.1.1.1c.1,0,.1.1.2.1l.2.1h.1l6.1,3.4c.1,0,.1.1.1.1l65.5,37,7.9,4.5c9.2,5,14.8,14.6,14.8,25.1Z"/><path class="cls-7" d="m291.82,196.29v23.9c0,.3,0,.7-.1,1,0,.3-.1.7-.1,1v.1c-.1.3-.1.7-.2,1h0c-.1.3-.2.7-.3,1-.1.3-.2.6-.3.9,0,.1-.1.2-.1.2-.1.3-.2.6-.4.9-.1.3-.3.6-.5,1-.6,1.1-1.2,2.1-2,3.1-.3.3-.5.6-.8.9l-.9.9c-.3.3-.6.6-.9.8h0c-.3.2-.6.5-.9.7,0,0-.1,0-.1.1-.3.2-.6.4-.9.6-.1.1-.2.1-.3.2-.2.1-.4.2-.6.3-.1,0-.1.1-.2.1-.2.1-.4.2-.6.3-.3.1-.5.2-.8.4-.3.1-.5.2-.8.3-.3.1-.5.2-.8.3-.2.1-.3.1-.5.1-.4.1-.7.2-1.1.3-.2,0-.4.1-.6.1-1.1.2-2.2.3-3.3.3h-55.1c.9-3.1,1.9-6.4,3-9.8,1.3-3.8,2.8-7.7,4.6-11.7,2.5-5.6,5.5-11.4,9.1-17,8-12.4,18.9-24,33.8-32l7.9,4.5c9.2,5.1,14.8,14.7,14.8,25.2Z"/><path class="cls-4" d="m291.82,215.59v4.6c0,.3,0,.7-.1,1,0,.3-.1.7-.1,1v.1c-.1.3-.1.7-.2,1h0c-.1.3-.2.7-.3,1-.1.3-.2.6-.3.9,0,.1-.1.2-.1.2-.1.3-.2.6-.4.9-.1.3-.3.6-.5,1-.6,1.1-1.2,2.1-2,3.1-.3.3-.5.6-.8.9l-.9.9c-.3.3-.6.6-.9.8h0c-.3.2-.6.5-.9.7,0,0-.1,0-.1.1-.3.2-.6.4-.9.6-.1.1-.2.1-.3.2-.2.1-.4.2-.6.3-.1,0-.1.1-.2.1-.2.1-.4.2-.6.3-.3.1-.5.2-.8.4-.3.1-.5.2-.8.3-.3.1-.5.2-.8.3-.2.1-.3.1-.5.1-.4.1-.7.2-1.1.3-.2,0-.4.1-.6.1-1.1.2-2.2.3-3.3.3h-105.2c-3,0-5.5-2.4-5.5-5.5,0-1.2-.5-2.3-1.3-3.1s-1.9-1.3-3.1-1.3h-31.7c-2.4,0-4.3,2-4.3,4.4,0,1.5-.6,2.8-1.6,3.8s-2.4,1.6-3.9,1.6h-46c-.8,0-1.7-.1-2.5-.2-.3,0-.5-.1-.8-.1-.3-.1-.5-.1-.8-.2-.2-.1-.4-.1-.6-.2-.1,0-.2-.1-.3-.1-.2-.1-.4-.1-.6-.2s-.5-.2-.7-.3c-.3-.1-.5-.2-.8-.4-.2-.1-.5-.2-.7-.4-.5-.2-.9-.5-1.3-.8-.3-.2-.6-.4-.8-.6-.1,0-.1-.1-.2-.1-.2-.1-.4-.3-.5-.5-.2-.1-.4-.3-.5-.5-.2-.2-.3-.3-.5-.5-.3-.3-.6-.6-.9-.9-.2-.3-.4-.5-.6-.8,0-.1-.1-.1-.1-.2-.2-.3-.4-.6-.6-.9-.1-.2-.3-.5-.4-.8l-.3-.6c-.1-.2-.2-.5-.3-.7-.2-.4-.3-.9-.5-1.3-.2-.6-.4-1.3-.5-2-.1-.4-.1-.8-.2-1.3-.1-.6-.1-1.2-.1-1.8v-5.4h236.8v.4Z"/><path class="cls-7" d="m56.22,227.29h70.7c-2.4,0-4.3,2-4.3,4.4,0,1.5-.6,2.8-1.6,3.8s-2.4,1.6-3.9,1.6h-46c-6.7.1-12.4-4-14.9-9.8Z"/><path class="cls-7" d="m289.82,227.29c-.6,1.1-1.2,2.1-2,3.1-.3.3-.5.6-.8.9l-.9.9c-.3.3-.6.6-.9.8h0c-.3.2-.6.5-.9.7,0,0-.1,0-.1.1-.3.2-.6.4-.9.6-.1.1-.2.1-.3.2-.2.1-.4.2-.6.3-.1,0-.1.1-.2.1-.2.1-.4.2-.6.3-.3.1-.5.2-.8.4-.3.1-.5.2-.8.3-.3.1-.5.2-.8.3-.2.1-.3.1-.5.1-.4.1-.7.2-1.1.3-.2,0-.4.1-.6.1-1.1.2-2.2.3-3.3.3h-105.2c-3,0-5.5-2.4-5.5-5.5,0-1.2-.5-2.3-1.3-3.1s-1.9-1.3-3.1-1.3h131.2v.1Z"/><path class="cls-6" d="m187.62,136.39c0,3.1-2.5,5.6-5.6,5.6s-5.6-2.5-5.6-5.6,2.5-5.6,5.6-5.6c3.1,0,5.6,2.5,5.6,5.6Z"/><path class="cls-6" d="m205.02,145.99c0,3.1-2.5,5.6-5.6,5.6s-5.6-2.5-5.6-5.6,2.5-5.6,5.6-5.6,5.6,2.5,5.6,5.6Z"/><circle class="cls-6" cx="216.82" cy="155.69" r="5.6"/><circle class="cls-6" cx="234.22" cy="165.29" r="5.6"/><path class="cls-4" d="m182.02,138.69c-.9,0-1.8-.5-2.1-1.4-.5-1.2.1-2.5,1.3-2.9l27.8-11c1.2-.5,2.5.1,2.9,1.3.5,1.2-.1,2.5-1.3,2.9l-27.8,11c-.2,0-.5.1-.8.1Z"/><path class="cls-4" d="m199.42,148.29c-1,0-2-.7-2.2-1.8l-6.8-29.1c-.3-1.2.5-2.4,1.7-2.7s2.4.5,2.7,1.7l6.8,29.1c.3,1.2-.5,2.4-1.7,2.7-.2.1-.3.1-.5.1Z"/><path class="cls-4" d="m216.82,158.79c-.9,0-1.7-.5-2.1-1.4-.5-1.2,0-2.5,1.2-3l27.8-11.9c1.2-.5,2.5,0,3,1.2s0,2.5-1.2,3l-27.8,11.9c-.3.1-.6.2-.9.2Z"/><path class="cls-4" d="m234.12,167.59c-1,0-2-.7-2.2-1.8l-6.8-29.1c-.3-1.2.5-2.4,1.7-2.7s2.4.5,2.7,1.7l6.8,29.1c.3,1.2-.5,2.4-1.7,2.7-.1,0-.3.1-.5.1Z"/><path class="cls-4" d="m199.42,148.69c-.9,0-1.8-.5-2.1-1.4-.5-1.2.1-2.5,1.3-2.9l27.8-11c1.2-.5,2.5.1,2.9,1.3.5,1.2-.1,2.5-1.3,2.9l-27.8,11c-.2.1-.5.1-.8.1Z"/><path class="cls-4" d="m216.82,158.79c-1,0-2-.7-2.2-1.8l-7-31.1c-.3-1.2.5-2.4,1.7-2.7s2.4.5,2.7,1.7l7,31.1c.3,1.2-.5,2.4-1.7,2.7-.2.1-.4.1-.5.1Z"/></g></g></svg>