<?xml version="1.0" encoding="UTF-8"?><svg id="_圖層_2" xmlns="http://www.w3.org/2000/svg" viewBox="0 0 331.2 331.2"><defs><style>.cls-1{opacity:.05;}.cls-2{fill:#f77c5b;}.cls-3{fill:#fff;}.cls-4{fill:#fdda92;}.cls-5{fill:#243239;}.cls-6{fill:#058789;}</style></defs><g id="Layer_2"><circle class="cls-2" cx="165.6" cy="165.6" r="165.6"/><path class="cls-3" d="m246.19,139.52c0,8.4-1.2,16.5-3.5,24.2-.2.3-.3.7-.5,1l-4.3,11.5s0,.1-.1.1l-18,50.1c-3.4,9.1-5.2,18.8-5.2,28.6l2.9,38h-79.6l1.5-31.1c0-4.7-3.8-8.6-8.6-8.6h-32.6c-2.9,0-5.3-2.1-5.7-5l-.7-5.9-3.5-6.1c-.9-1.6-.9-3.5-.1-5.1l1.8-3.4-4.2-4.3c-1.2-1.2-1.5-3-.8-4.5l2.6-6c.3-.8.5-1.7.4-2.6l-.6-4.4c-.2-1.4-1.3-2.4-2.7-2.4h-7.3c-3.6,0-6-3.7-4.6-7l10.4-23.7-.1-1-3.4-26.8c-1.1-4.6-1.8-9.4-2.1-14.3-.1-1.9,0-3.8.3-5.7,7.1-42,45.1-73.5,89.8-70.4,43.7,3.2,78.5,40.6,78.5,84.8Z"/><path class="cls-5" d="m93.79,126.72v10.3c0,.9.7,1.7,1.6,1.9l11.4,1.8c.6,3.6,1.5,7,2.8,10.3l-9,7.3c-.7.6-.9,1.6-.5,2.4l5.2,8.9c.5.8,1.4,1.2,2.3.8l10.8-4.2c2.3,2.8,4.8,5.3,7.5,7.6l-4.2,10.8c-.3.9,0,1.8.8,2.3l8.9,5.1c.8.5,1.8.3,2.4-.5l7.3-9c3.3,1.2,6.8,2.2,10.3,2.7l1.8,11.4c.1.9.9,1.6,1.9,1.6h10.3c.9,0,1.7-.7,1.8-1.6l1.8-11.4c3.6-.6,7-1.5,10.3-2.7l7.3,9c.6.7,1.6.9,2.4.5l8.9-5.1c.8-.5,1.1-1.4.8-2.3l-4.1-10.8c2.7-2.3,5.3-4.8,7.5-7.6l10.8,4.2c.9.3,1.8,0,2.3-.8l5.2-8.9c.5-.8.3-1.8-.4-2.4l-9-7.3c1.2-3.3,2.2-6.7,2.8-10.3l11.5-1.8c.9-.1,1.6-.9,1.6-1.9v-10.3c0-.9-.7-1.7-1.6-1.9l-11.5-1.8c-.6-3.6-1.5-7-2.8-10.3l9-7.3c.7-.6.9-1.6.4-2.4l-5.2-8.9c-.5-.8-1.4-1.2-2.3-.8l-10.8,4.1c-2.3-2.7-4.8-5.3-7.5-7.5l4.1-10.8c.3-.9,0-1.9-.8-2.3l-8.9-5.1c-.8-.5-1.8-.3-2.4.4l-7.3,9c-3.3-1.3-6.8-2.2-10.3-2.8l-1.8-11.5c-.1-.9-.9-1.6-1.8-1.6h-10.3c-.9,0-1.7.7-1.9,1.6l-1.8,11.5c-3.6.6-7,1.5-10.3,2.8l-7.3-9c-.6-.7-1.6-.9-2.4-.4l-8.9,5.1c-.8.5-1.2,1.4-.8,2.3l4.2,10.8c-2.7,2.3-5.3,4.8-7.5,7.5l-10.8-4.1c-.9-.4-1.8,0-2.3.8l-5.2,8.9c-.5.8-.3,1.8.5,2.4l9,7.3c-1.2,3.3-2.2,6.8-2.8,10.3l-11.4,1.8c-.9.2-1.6,1-1.6,1.9Z"/><circle class="cls-6" cx="160.39" cy="131.92" r="36.5"/><circle class="cls-3" cx="160.4" cy="131.91" r="25.1"/><g class="cls-1"><path class="cls-5" d="m93.79,126.72v10.3c0,.9.7,1.7,1.6,1.9l11.4,1.8c.6,3.6,1.5,7,2.8,10.3l-9,7.3c-.7.6-.9,1.6-.5,2.4l5.2,8.9c.5.8,1.4,1.2,2.3.8l10.8-4.2c2.3,2.8,4.8,5.3,7.5,7.6l-4.2,10.8c-.3.9,0,1.8.8,2.3l8.9,5.1c.8.5,1.8.3,2.4-.5l7.3-9c3.3,1.2,6.8,2.2,10.3,2.7l1.8,11.4c.1.9.9,1.6,1.9,1.6h5.1V65.32h-5.1c-.9,0-1.7.7-1.9,1.6l-1.8,11.5c-3.6.6-7,1.5-10.3,2.8l-7.3-9c-.6-.7-1.6-.9-2.4-.4l-8.9,5.1c-.8.5-1.2,1.4-.8,2.3l4.2,10.8c-2.7,2.3-5.3,4.8-7.5,7.5l-10.8-4.1c-.9-.4-1.8,0-2.3.8l-5.2,8.9c-.5.8-.3,1.8.5,2.4l9,7.3c-1.2,3.3-2.2,6.8-2.8,10.3l-11.4,1.8c-.9.1-1.6.9-1.6,1.8Z"/></g><path class="cls-4" d="m165.89,76.22v7.2c0,.7.5,1.2,1.1,1.3l8,1.3c.4,2.5,1.1,4.9,1.9,7.2l-6.3,5.1c-.5.4-.6,1.1-.3,1.7l3.6,6.2c.3.6,1,.8,1.6.6l7.6-2.9c1.6,1.9,3.4,3.7,5.3,5.3l-2.9,7.6c-.2.6,0,1.3.6,1.6l6.2,3.6c.6.3,1.3.2,1.7-.3l5.1-6.3c2.3.9,4.7,1.5,7.2,1.9l1.3,8c.1.7.6,1.1,1.3,1.1h7.2c.7,0,1.2-.5,1.3-1.1l1.3-8c2.5-.4,4.9-1.1,7.2-1.9l5.1,6.3c.4.5,1.1.6,1.7.3l6.3-3.6c.5-.3.8-1,.6-1.6l-2.9-7.6c1.9-1.6,3.7-3.4,5.3-5.3l7.6,2.9c.6.2,1.3,0,1.6-.6l3.6-6.2c.3-.6.2-1.3-.3-1.7l-6.3-5.1c.9-2.3,1.5-4.7,1.9-7.2l8-1.3c.6-.1,1.1-.7,1.1-1.3v-7.2c0-.7-.5-1.2-1.1-1.3l-8-1.3c-.4-2.5-1.1-4.9-1.9-7.2l6.3-5.1c.5-.4.6-1.1.3-1.7l-3.6-6.2c-.3-.5-1-.8-1.6-.6l-7.6,2.9c-1.6-1.9-3.4-3.7-5.3-5.3l2.9-7.6c.2-.6,0-1.3-.6-1.6l-6.3-3.6c-.5-.3-1.3-.2-1.7.3l-5.1,6.3c-2.3-.9-4.7-1.5-7.2-1.9l-1.3-8c-.1-.6-.6-1.1-1.3-1.1h-7.2c-.7,0-1.2.5-1.3,1.1l-1.3,8c-2.5.4-4.9,1.1-7.2,1.9l-5.1-6.3c-.4-.5-1.1-.6-1.7-.3l-6.2,3.6c-.6.3-.8,1-.6,1.6l2.9,7.6c-1.9,1.6-3.7,3.4-5.3,5.3l-7.6-2.9c-.6-.2-1.3,0-1.6.6l-3.6,6.2c-.3.6-.2,1.3.3,1.7l6.3,5.1c-.9,2.3-1.5,4.7-1.9,7.2l-8,1.3c-.6.1-1.1.6-1.1,1.3Z"/><circle class="cls-5" cx="212.49" cy="79.81" r="25.6"/><circle class="cls-3" cx="212.49" cy="79.82" r="17.6"/><g class="cls-1"><path class="cls-5" d="m165.89,76.22v7.2c0,.7.5,1.2,1.1,1.3l8,1.3c.4,2.5,1.1,4.9,1.9,7.2l-6.3,5.1c-.5.4-.6,1.1-.3,1.7l3.6,6.2c.3.6,1,.8,1.6.6l7.6-2.9c1.6,1.9,3.4,3.7,5.3,5.3l-2.9,7.6c-.2.6,0,1.3.6,1.6l6.2,3.6c.6.3,1.3.2,1.7-.3l5.1-6.3c2.3.9,4.7,1.5,7.2,1.9l1.3,8c.1.7.6,1.1,1.3,1.1h3.6V33.22h-3.6c-.7,0-1.2.5-1.3,1.1l-1.3,8c-2.5.4-4.9,1.1-7.2,1.9l-5.1-6.3c-.4-.5-1.1-.6-1.7-.3l-6.2,3.6c-.6.3-.8,1-.6,1.6l2.9,7.6c-1.9,1.6-3.7,3.4-5.3,5.3l-7.6-2.9c-.6-.2-1.3,0-1.6.6l-3.6,6.2c-.3.6-.2,1.3.3,1.7l6.3,5.1c-.9,2.3-1.5,4.7-1.9,7.2l-8,1.3c-.6.1-1.1.6-1.1,1.3Z"/></g></g></svg>