<?xml version="1.0" encoding="UTF-8"?><svg id="_圖層_2" xmlns="http://www.w3.org/2000/svg" viewBox="0 0 146 146"><defs><style>.cls-1{fill:#f77c5b;}.cls-2{fill:#edf3f3;}.cls-3{fill:#efcb8e;}.cls-4{fill:#fdda92;}.cls-5{fill:#7bd1df;}.cls-6{fill:#243239;}</style></defs><g id="Layer_2"><circle class="cls-2" cx="73" cy="73" r="73"/><ellipse class="cls-3" cx="73" cy="64.1" rx="51.6" ry="16.7"/><path class="cls-4" d="m91.5,24.8l-19.4,5.1-19.4-5.1c-6.4-1.7-12.7,3.1-12.7,9.8v24c0,4.3,3.5,7.9,7.9,7.9h48.4c4.3,0,7.9-3.5,7.9-7.9v-24c0-6.6-6.3-11.5-12.7-9.8Z"/><path class="cls-1" d="m104.2,58.7H40.1c0,4.3,3.5,7.9,7.9,7.9h48.4c4.3-.1,7.8-3.6,7.8-7.9h0Z"/><circle class="cls-5" cx="52.27" cy="100.71" r="16"/><path class="cls-6" d="m52.3,118.6c-9.9,0-17.9-8-17.9-17.9s8-17.9,17.9-17.9,17.9,8,17.9,17.9-8.1,17.9-17.9,17.9Zm0-31.9c-7.7,0-14,6.3-14,14s6.3,14,14,14,14-6.3,14-14-6.3-14-14-14Z"/><path class="cls-2" d="m44.4,100.3l-3.8-.2c.3-6.2,5.5-11.1,11.7-11.1h.9l-.3,3.8h-.6c-4.2,0-7.7,3.3-7.9,7.5Z"/><circle class="cls-5" cx="93.66" cy="100.68" r="16"/><path class="cls-6" d="m93.7,118.6c-9.9,0-17.9-8-17.9-17.9s8-17.9,17.9-17.9,17.9,8,17.9,17.9c-.1,9.9-8.1,17.9-17.9,17.9Zm0-31.9c-7.7,0-14,6.3-14,14s6.3,14,14,14,14-6.3,14-14-6.3-14-14-14Z"/><path class="cls-2" d="m85.8,100.3l-3.8-.2c.3-6.5,6-11.6,12.6-11.1l-.3,3.8h-.6c-4.2,0-7.7,3.3-7.9,7.5Z"/><path class="cls-6" d="m79.2,101.9h-3.2c0-1.7-1.4-3-3-3-1.7,0-3,1.4-3,3h-3.2c0-3.4,2.8-6.2,6.2-6.2,3.4,0,6.2,2.8,6.2,6.2Z"/></g></svg>