<?xml version="1.0" encoding="UTF-8"?><svg id="_圖層_2" xmlns="http://www.w3.org/2000/svg" viewBox="0 0 143.8 143.8"><defs><style>.cls-1{fill:#f77c5b;}.cls-2{fill:#edf3f3;}.cls-3{fill:#e3a72f;}.cls-4{fill:#fdda92;}.cls-5{fill:#d65a2f;}.cls-6{fill:#503d2e;}.cls-7{opacity:.15;}</style></defs><g id="Layer_2"><circle class="cls-2" cx="71.9" cy="71.9" r="71.9"/><path class="cls-1" d="m106.77,76.01c8,8,8,20.9,0,28.9h0c-8,8-20.9,7.9-28.9,0l-.1-.1c-.9-1-1.8-2-2.5-3.1,3.4-3.4,3.4-9,0-12.4-2.5-2.5-6.3-3.2-9.4-2-5-5.3-5.8-13.2-2.5-19.3.1-.3.3-.5.4-.8.7-1.1,1.4-2.1,2.4-3h0c.9-.9,1.9-1.7,3-2.4.2-.2.5-.3.8-.4,6.1-3.4,14-2.6,19.3,2.5-1.2,3.2-.6,6.9,2,9.4,3.4,3.4,9,3.4,12.4,0,1,.8,2.1,1.7,3.1,2.7Z"/><path class="cls-5" d="m105.77,104.01l.9.9c-8,8-20.9,7.9-28.9,0l-.1-.1c.2-.3.5-.5.7-.8,7.6-7.5,19.9-7.5,27.4,0Z"/><path class="cls-6" d="m45.07,56.61l-1.4,1.4c-.3.3-.8.3-1.1,0l-1.4-1.4c-.3-.3-.3-.8,0-1.1l1.4-1.4c.3-.3.8-.3,1.1,0l1.4,1.4c.3.3.3.8,0,1.1Z"/><path class="cls-6" d="m58.37,39.31l1.4,1.4c.3.3.3.8,0,1.1l-1.4,1.4c-.3.3-.8.3-1.1,0l-1.5-1.4c-.3-.3-.3-.8,0-1.1l1.4-1.4c.4-.3.9-.3,1.2,0Z"/><rect class="cls-5" x="41.74" y="47.63" width="17.3" height="2" transform="translate(-19.63 49.87) rotate(-45)"/><path class="cls-6" d="m49.37,60.91l-1.5,1.4c-.3.3-.8.3-1.1,0l-1.4-1.4c-.3-.3-.3-.8,0-1.1l1.4-1.4c.3-.3.8-.3,1.1,0l1.4,1.4c.4.3.4.8.1,1.1Z"/><path class="cls-6" d="m62.67,43.61l1.4,1.4c.3.3.3.8,0,1.1l-1.4,1.4c-.3.3-.8.3-1.1,0l-1.4-1.4c-.3-.3-.3-.8,0-1.1l1.4-1.4c.3-.3.8-.3,1.1,0Z"/><rect class="cls-5" x="46.03" y="51.95" width="17.3" height="2" transform="translate(-21.42 54.17) rotate(-45)"/><path class="cls-6" d="m82.57,80.81c-1.7,1.7-4.6,1.7-6.3,0l-.1-.1-12.4-13.4-10.6-11.3-1.4-1.5-2.8-3-1.4-1.5-3.1-3.3c0-.1-.1-.1-.1-.2-.9-1.1-.8-2.7.2-3.7.5-.5,1.2-.8,1.9-.8.6,0,1.2.2,1.8.6.1,0,.1.1.2.1l3.3,3.1,1.5,1.4,3,2.8,1.5,1.4,11.3,10.5,13.3,12.4c1.9,1.8,2,4.7.2,6.5Z"/><path class="cls-4" d="m95.87,85.71l-8.5,8.5c-.8.8-2.1.8-2.9,0h0c-.8-.8-.8-2.1,0-2.9l8.5-8.5c.8-.8,2.1-.8,2.9,0h0c.8.8.8,2.1,0,2.9Z"/><path class="cls-1" d="m48.27,40.11v4c0,.7-.3,1.3-.7,1.7s-1.1.7-1.7.7h-4c-1.2,0-2.2-.8-2.4-2l-1.4-6.6c-.1-.5.1-1,.4-1.3.3-.3.8-.5,1.3-.4l6.6,1.4c1.1.3,1.9,1.3,1.9,2.5Z"/><g class="cls-7"><path class="cls-6" d="m106.77,76.01c8,8,8,20.9,0,28.9L38.37,36.61c.3-.3.8-.5,1.3-.4l6.6,1.4c1.1.2,2,1.2,2,2.4v2.6c.1,0,.1.1.2.1l3.3,3.1,4-4c-.3-.3-.3-.8,0-1.1l1.4-1.4c.3-.3.8-.3,1.1,0l1.4,1.4c.3.3.3.8,0,1.1l-1.4,1.4c-.3.3-.8.3-1.1,0l-4,4,3,2.8,3.9-3.9c-.3-.3-.3-.8,0-1.1l1.4-1.4c.3-.3.8-.3,1.1,0l1.4,1.4c.3.3.3.8,0,1.1l-1.4,1.4c-.3.3-.8.3-1.1,0l-3.8,3.8,11.3,10.5c.2-.2.5-.3.8-.4,6.1-3.4,14-2.6,19.3,2.5-1.2,3.2-.6,6.9,2,9.4,3.4,3.4,9,3.4,12.4,0,1.2.8,2.3,1.7,3.3,2.7Z"/></g><path class="cls-6" d="m39.97,102.81c-.8,0-1.6-.5-1.9-1.4l-1.7-5.8c-1.3-4.3-.1-8.9,3-12.1l53.7-53.7c.8-.8,2-.8,2.8,0s.8,2,0,2.8l-53.7,53.7c-2.1,2.1-2.9,5.3-2,8.2l1.7,5.8c.3,1-.3,2.1-1.3,2.5h-.6Z"/><path class="cls-6" d="m90.07,52.71c-.5,0-1-.2-1.4-.6l-7.6-7.6c-.8-.8-.8-2,0-2.8s2-.8,2.8,0l7.6,7.6c.8.8.8,2,0,2.8-.4.4-.9.6-1.4.6Z"/><path class="cls-3" d="m39.07,97.91c-.3,0-.5-.1-.7-.3-.4-.4-.4-1,0-1.4l48.5-48.5c.4-.4,1-.4,1.4,0s.4,1,0,1.4l-48.5,48.5c-.2.2-.5.3-.7.3Z"/></g></svg>