<?xml version="1.0" encoding="utf-8"?>
<!-- Generator: Adobe Illustrator 27.5.0, SVG Export Plug-In . SVG Version: 6.00 Build 0)  -->
<svg version="1.1" id="圖層_1" xmlns="http://www.w3.org/2000/svg" xmlns:xlink="http://www.w3.org/1999/xlink" x="0px" y="0px"
	 viewBox="0 0 1180.8 422.2" style="enable-background:new 0 0 1180.8 422.2;" xml:space="preserve">
<style type="text/css">
	.st0{fill:#F96F15;}
	.st1{fill:#FCC048;}
	.st2{fill:#06B4E5;}
	.st3{fill:#D344B0;}
	.st4{fill:#F65449;}
	.st5{fill:#30C77A;}
	.st6{font-family:'KohinoorTelugu-Light';}
	.st7{font-size:36px;}
</style>
<g>
	<path class="st0" d="M233.2,194.5h-27.1c0,3.4,0,21.4,0,21.6h27.1c2.7,0,4.9-0.9,6.6-2.7s2.5-4.5,2.5-8c0-3.6-0.8-6.3-2.5-8.1
		C238.1,195.5,235.9,194.5,233.2,194.5z"/>
	<path class="st1" d="M247.6,137.6c-1.6-1.8-3.9-2.7-6.7-2.7h-34.6c0,0.1,0,18.3,0,21.8c0,0.1,0.3,0,0.3,0h34.3
		c2.9,0,5.1-0.9,6.7-2.8c1.6-1.8,2.4-4.6,2.4-8.2S249.2,139.4,247.6,137.6z"/>
	<path class="st2" d="M196.5,156.7c-0.1-3.5-0.3-21.7-0.3-21.8h-14.7c-4,0-7,1.1-9.2,3.4c-2.1,2.2-3.2,5.4-3.2,9.4v114.2
		c0,4,1.1,7,3.3,9.2c2.2,2.1,5.6,3.2,10.3,3.2c4.6,0,8-1.1,10.3-3.2c2.3-2.1,3.4-5.2,3.4-9.2C196.4,261.8,196.5,156.7,196.5,156.7z"
		/>
	<path class="st2" d="M302.8,252.8c-2.6-0.3-5.1-0.9-7.4-1.9c-3.5-1.4-6.4-3.6-8.9-6.6c-2.5-3-4.4-6.9-5.8-11.5
		c-1.4-4.7-2.1-10.2-2.1-16.7v-69.5c0-4-1.1-7-3.3-9.2c-2.2-2.1-5.6-3.2-10.3-3.2c-4.6,0-8.1,1.1-10.3,3.2c-2.2,2.1-3.4,5.2-3.4,9.2
		v73.1c0,9.2,1.2,17.3,3.5,24.2c2.3,7,5.8,12.8,10.3,17.5c4.5,4.7,10.1,8.2,16.8,10.6c5.9,2.1,13.3,3.3,20.8,3.5
		C302.8,275.5,302.8,253.1,302.8,252.8z"/>
	<path class="st3" d="M357.3,137.4c-2.2-2.1-5.7-3.2-10.3-3.2c-4.6,0-8,1.1-10.3,3.2c-2.2,2.1-3.3,5.2-3.3,9.2v72.7
		c0,5.8-0.7,10.9-2,15.1c-1.3,4.2-3.2,7.7-5.6,10.5c-2.4,2.8-5.2,4.8-8.4,6.2c-1.5,0.6-3.6,1.5-5.2,1.9c0.1,0.3,0,0.4,0,0.8
		c0,7.2,0.1,14.3,0,21.5c6-0.5,11.5-1.6,16.5-3.4c6.9-2.5,12.7-6.2,17.4-11.1c4.7-4.9,8.3-11.1,10.8-18.5c2.5-7.4,3.8-16,3.8-25.8
		v-69.9C360.7,142.6,359.6,139.6,357.3,137.4z"/>
	<g>
		<path class="st4" d="M564.3,157.5c1.9,0.7,3.6,1.4,5.1,2s3,0.9,4.6,0.9c2.7,0,5-0.8,6.8-2.5c1.8-1.7,2.6-4.1,2.6-7.1
			c0-1.8-0.2-3.4-0.7-4.8c-0.5-1.4-1.4-2.8-2.9-4.3c-1-1.1-2.5-2.1-4.4-3.2c-1.9-1.1-4.1-2-6.7-2.8c-2.6-0.8-5.6-1.5-8.9-2
			c-2.3-0.3-4.9-0.6-7.6-0.7v21.7c1.9,0.1,3.6,0.4,5.1,0.7C560.1,156.1,562.4,156.8,564.3,157.5z"/>
		<path class="st1" d="M538.3,253.5c-4.7,0-8.5-0.3-11.6-1c-3-0.7-5.6-1.4-7.7-2.2c-2.1-0.8-3.9-1.5-5.3-2.2c-1.5-0.7-3-1-4.6-1
			c-2.7,0-5,0.9-6.7,2.6c-1.8,1.7-2.6,4.1-2.6,7.3c0,1.9,0.3,3.6,0.9,5s1.6,2.8,2.9,4.2c1,1,2.4,2,4.4,3.1c1.9,1.1,4.3,2,7.1,2.9
			c2.8,0.9,6,1.6,9.7,2.2c3.7,0.6,7.8,0.9,12.4,0.9c1.3,0,2.6,0,3.9-0.1v-21.8C540.1,253.5,539.2,253.5,538.3,253.5z"/>
		<path class="st3" d="M586.1,216.7c-1.8-4.3-4.1-7.9-7-10.9c-2.9-3-6.3-5.5-10-7.4c-3.7-2-7.5-3.7-11.3-5.2
			c-3.8-1.5-7.6-2.8-11.3-4.1c-3.7-1.3-7-2.7-10-4.3c-2.9-1.6-5.3-3.5-7-5.8c-1.8-2.2-2.6-5-2.6-8.4c0-2.3,0.4-4.4,1.2-6.4
			c0.8-2,2.1-3.6,3.8-5.1c1.7-1.4,3.9-2.5,6.5-3.3c0.9-0.3,1.8-0.5,2.8-0.6v-21.8c-4.9,0.5-9.4,1.4-13.5,2.7
			c-6.1,2-11.3,4.9-15.4,8.6c-4.1,3.7-7.3,8-9.3,13c-2.1,5-3.1,10.4-3.1,16.2s0.9,10.8,2.6,14.9c1.8,4.1,4.1,7.6,7,10.5
			c2.9,2.9,6.2,5.3,9.9,7.1c3.7,1.9,7.5,3.6,11.4,5.1c3.9,1.5,7.7,2.9,11.4,4.3c3.7,1.3,7,2.9,9.9,4.6c2.9,1.7,5.2,3.8,7,6.2
			c1.8,2.4,2.6,5.4,2.6,9c0,2.6-0.5,5-1.4,7.2c-0.9,2.2-2.4,4.1-4.2,5.7c-1,0.8-2.2,1.6-3.5,2.2V274c2.6-0.5,5-1.1,7.3-1.9
			c6.5-2.1,11.8-5.1,16.1-9c4.3-3.8,7.5-8.4,9.7-13.6c2.2-5.3,3.3-11,3.3-17.2C588.7,226.2,587.8,221,586.1,216.7z"/>
	</g>
	<g>
		<path class="st2" d="M702.6,137.4c-2.2-2.1-5.6-3.2-10.2-3.2c-4.7,0-8.1,1.1-10.4,3.2c-2.2,2.1-3.3,5.2-3.3,9.2v45h-44.1v22.6
			h44.1v47.7c0,4,1.1,7,3.3,9.2c2.2,2.1,5.7,3.2,10.4,3.2c4.6,0,8-1.1,10.3-3.2c2.2-2.1,3.3-5.2,3.3-9.2V146.6
			C706,142.6,704.9,139.6,702.6,137.4z"/>
		<path class="st3" d="M624.6,191.5v-3.8v-41.2c0-4-1.1-7-3.3-9.2c-2.2-2.1-5.7-3.2-10.4-3.2c-4.6,0-8,1.1-10.3,3.2
			c-2.2,2.1-3.3,5.2-3.3,9.2v115.3c0,4,1.1,7,3.3,9.2c2.2,2.1,5.6,3.2,10.3,3.2c4.7,0,8.1-1.1,10.4-3.2c2.2-2.1,3.3-5.2,3.3-9.2
			v-42.3v-5.3V191.5z"/>
	</g>
	<g>
		<path class="st0" d="M857.2,196.6v-40.4v-21.3h-14.4c-4,0-7,1.1-9.2,3.4c-2.1,2.2-3.2,5.4-3.2,9.4v114.2c0,4,1.1,7,3.2,9.2
			c2.1,2.1,5.5,3.2,10.2,3.2c4.6,0,7.9-1.1,10.1-3.2c2.2-2.1,3.3-5.2,3.3-9.2v-36.2V218V196.6z"/>
		<path class="st5" d="M925.1,256.8c-0.5-1.3-1.3-2.8-2.4-4.5l-25.2-39.9c4-1.4,7.7-3.3,11-5.6c3.3-2.3,6.2-5.1,8.5-8.3
			s4.2-6.8,5.5-10.9c1.3-4,2-8.4,2-13.2c0-5.7-1-11-3.1-15.8s-5.2-9-9.6-12.5c-4.3-3.5-9.8-6.3-16.5-8.2c-6.7-1.9-14.6-2.9-23.8-2.9
			H870v21.3h0.2c4.8,0,8.9,0.5,12.3,1.4c3.4,0.9,6.1,2.3,8.3,4c2.1,1.7,3.7,3.8,4.6,6.2c1,2.4,1.5,5.2,1.5,8.2s-0.5,5.8-1.6,8.3
			c-1,2.5-2.6,4.7-4.8,6.5s-4.9,3.2-8.1,4.2c-3.3,1-7.1,1.5-11.4,1.5h-1V218h0.7l27.1,47.2c0.4,0.7,0.7,1.3,1.1,1.8
			c0.3,0.5,0.6,1,0.9,1.5c0.3,0.5,0.6,0.9,1,1.3c0.4,0.4,0.7,0.8,1.1,1.2c1,1.1,2.3,1.9,3.7,2.6c1.4,0.6,3,1,4.9,1
			c1.9,0,3.8-0.4,5.6-1.1c1.9-0.7,3.5-1.7,4.9-2.9c1.4-1.2,2.6-2.7,3.5-4.3c0.9-1.6,1.3-3.4,1.3-5.4
			C925.9,259.4,925.6,258.1,925.1,256.8z"/>
	</g>
	<g>
		<path class="st4" d="M971.6,156.7h33.8c2.9,0,5.1-0.9,6.8-2.8c1.7-1.8,2.5-4.6,2.5-8.2s-0.8-6.3-2.5-8.1s-3.9-2.7-6.8-2.7h-33.8
			V156.7z"/>
		<path class="st0" d="M1005.3,210.7c1.7-1.8,2.5-4.5,2.5-7.9c0-3.6-0.8-6.2-2.5-8s-3.9-2.7-6.6-2.7h-27.1v21.4h27.1
			C1001.5,213.4,1003.7,212.5,1005.3,210.7z"/>
		<path class="st1" d="M959.9,134.9h-14.8c-4,0-7,1.1-9.2,3.4c-2.1,2.2-3.2,5.4-3.2,9.4v113.1c0,4,1.1,7.2,3.2,9.4
			c2.1,2.2,5.2,3.4,9.2,3.4h14.8V134.9z"/>
		<path class="st2" d="M1012.5,254.4c-1.7-1.8-3.9-2.8-6.7-2.8h-34.3v21.8h34.3c2.8,0,5-0.9,6.7-2.7s2.5-4.5,2.5-8.1
			S1014.2,256.3,1012.5,254.4z"/>
	</g>
	<g>
		<path class="st1" d="M772,219.5h-23l11.5-37.3l-11.6-37.4c0,0.1-0.1,0.2-0.1,0.2c-0.6,1.1-1.1,2.3-1.7,3.6
			c-0.5,1.3-1.1,2.8-1.7,4.4l-34.2,101.5c-0.7,2.2-1.2,3.9-1.5,4.9c-0.3,1.1-0.4,2.1-0.4,3.2c0,1.9,0.4,3.6,1.3,5
			c0.8,1.5,2,2.7,3.3,3.7s2.9,1.8,4.5,2.3s3.3,0.8,5,0.8c1.9,0,3.5-0.3,5-0.9c1.4-0.6,2.6-1.3,3.5-2.3c1-1,1.8-2.3,2.4-3.9
			c0.6-1.6,1.3-3.5,2.1-5.9l6.5-20.7h35.7L772,219.5z"/>
		<path class="st3" d="M827,259c-0.2-1.1-0.7-2.7-1.5-5l-2.5-7.4c-0.1-0.5-0.2-0.9-0.3-1.4c-0.4-1.4-0.8-2.9-1.3-4.5L788,139.4
			c-0.7-2.3-1.4-3.9-1.8-4.9c-0.5-1-1-1.9-1.5-2.6c-1.3-1.7-2.7-2.8-4.4-3.5c-1.7-0.7-3.4-1-5.1-1c-1.8,0-3.5,0.4-5.2,1
			c-1.7,0.6-3.3,1.5-4.6,2.5c-1.5,1.1-2.7,2.4-3.5,3.8c-0.1,0.1-0.1,0.2-0.2,0.3c-0.5,0.1-0.9,2-0.9,2c-0.2,0.6-0.4,1.3-0.4,1.9
			c-0.2,1.4-0.1,2.9,0.3,4.4c0.4,1.5,0.9,3.3,1.7,5.4l0.1,0l13.8,38.4l23.2,75l-0.1,0c0.7,2.1,1.3,3.9,1.9,5.3
			c0.6,1.5,1.4,2.7,2.4,3.7c1,1.1,2.3,1.9,3.8,2.5c1.5,0.6,3.2,0.9,5.1,0.9c1.7,0,3.4-0.3,5.2-0.8s3.4-1.3,4.8-2.4
			c1.4-1,2.6-2.3,3.5-3.9c0.9-1.5,1.4-3.4,1.4-5.4C827.4,261.1,827.2,260.1,827,259z"/>
	</g>
	<path class="st2" d="M481.6,261.3c-0.2-0.9-0.5-1.9-1-2.9c-0.5-1-1.3-2.5-2.6-4.6l-4.1-6.7c-0.2-0.4-0.4-0.8-0.6-1.3
		c-0.7-1.2-1.4-2.6-2.3-4.1l-54.7-91.6c-1.2-2.1-2.2-3.5-2.9-4.4c-0.6-0.7-1.1-1.3-1.7-1.9c-0.3-0.4-0.6-0.8-0.8-1.2
		c-1.3-1.8-2.8-3.4-4.4-4.7c-1.6-1.3-3.5-2.2-5.5-2.9c-2.1-0.7-4.5-1-7.5-1c-6.4,0-11.1,1.6-14.2,4.7c-3.1,3.2-4.6,7.9-4.6,14.4V263
		c0,3.5,1,6.2,3,8.2c2,2,5.1,3,9.2,3s7.2-1,9.3-3c2.1-2,3.1-4.7,3-8.1l-1.2-70.2c-0.1-3.2-0.3-6.2-0.4-9.2c-0.2-3-0.3-5.6-0.5-7.8
		c-0.2-2.1-0.4-4.1-0.6-6.1l4.1,6.5c0.7,1.5,1.5,3.1,2.4,4.8c1.3,2.4,2.7,4.9,4.2,7.5l42.1,70.7c1.3,2.2,2.6,4.2,3.8,6l1.2,2.1
		l-0.1,0.1c1.1,1.9,2.1,3.5,3,4.8c0.9,1.3,2,2.3,3.1,3.1c1.3,0.8,2.7,1.4,4.3,1.6c1.6,0.3,3.3,0.2,5.2-0.2c1.7-0.4,3.3-1,4.9-1.9
		c1.3-0.7,2.4-1.6,3.4-2.6c0.5-0.4,1-0.8,1.6-1.3c0.4-0.5,0.6-1.1,0.8-1.8c0.4-0.7,0.7-1.5,1-2.3C482,265.2,482.1,263.4,481.6,261.3
		z"/>
	<path class="st4" d="M486.8,251V145.4c0-3.5-1-6.2-3-8.2c-2-2-5.1-3-9.2-3s-7.2,1-9.3,3c-2.1,2-3.1,4.7-3,8.1l1.1,65.1L486.8,251z"
		/>
</g>
<text transform="matrix(1 0 0 0.95 427.4677 322.5993)" class="st6 st7">FUN LIFE, FUN SHARE.</text>
</svg>
